Preview_144,100-wdth_460.00.ufo
<glyph name="quotedbl" format="2">
  <advance width="557"/>
  <unicode hex="0022"/>
  <outline>
    <contour>
      <point x="148.2" y="964.0" type="line"/>
      <point x="124.06" y="1465.8" type="line" smooth="yes"/>
      <point x="121.6" y="1518.8"/>
      <point x="136.76" y="1558.0"/>
      <point x="155.28" y="1558.0" type="qcurve" smooth="yes"/>
      <point x="173.8" y="1558.0"/>
      <point x="189.42000000000002" y="1518.8"/>
      <point x="186.96" y="1465.8" type="qcurve" smooth="yes"/>
      <point x="163.82" y="964.0" type="line"/>
    </contour>
    <contour>
      <point x="391.8" y="964.0" type="line"/>
      <point x="368.2" y="1465.8" type="line" smooth="yes"/>
      <point x="365.74" y="1518.8"/>
      <point x="381.82" y="1558.0"/>
      <point x="399.88" y="1558.0" type="qcurve" smooth="yes"/>
      <point x="418.4" y="1558.0"/>
      <point x="433.94" y="1518.8"/>
      <point x="431.48" y="1465.8" type="qcurve" smooth="yes"/>
      <point x="407.42" y="964.0" type="line"/>
    </contour>
  </outline>
</glyph>
<glyph name="percent" format="2">
  <advance width="1495"/>
  <unicode hex="0025"/>
  <outline>
    <contour>
      <point x="54.5" y="1108.4" type="qcurve"/>
      <point x="54.5" y="1287.68"/>
      <point x="232.96" y="1525.6"/>
      <point x="361.26" y="1525.6" type="qcurve" smooth="yes"/>
      <point x="500.02" y="1525.6"/>
      <point x="670.02" y="1291.76"/>
      <point x="670.02" y="1115.0" type="qcurve" smooth="yes"/>
      <point x="670.02" y="933.92"/>
      <point x="497.8" y="682.0"/>
      <point x="359.5" y="682.0" type="qcurve" smooth="yes"/>
      <point x="219.82" y="682.0"/>
      <point x="54.5" y="933.98"/>
    </contour>
    <contour>
      <point x="114.56" y="1110.56" type="qcurve" smooth="yes"/>
      <point x="116.02" y="939.54"/>
      <point x="233.68" y="690.84"/>
      <point x="361.26" y="690.84" type="qcurve" smooth="yes"/>
      <point x="484.24" y="690.84"/>
      <point x="609.88" y="938.42"/>
      <point x="609.88" y="1114.16" type="qcurve" smooth="yes"/>
      <point x="609.88" y="1293.68"/>
      <point x="487.08000000000004" y="1515.22"/>
      <point x="361.72" y="1515.22" type="qcurve" smooth="yes"/>
      <point x="239.12" y="1515.22"/>
      <point x="113.1" y="1281.04"/>
    </contour>
    <contour>
      <point x="303.22" y="-14.16" type="line"/>
      <point x="1150.46" y="1520.8" type="line"/>
      <point x="1164.68" y="1510.82" type="line"/>
      <point x="316.06" y="-23.76" type="line"/>
    </contour>
    <contour>
      <point x="825.34" y="418.88" type="qcurve" smooth="yes"/>
      <point x="825.34" y="595.78"/>
      <point x="1003.8" y="830.14"/>
      <point x="1132.1" y="830.14" type="qcurve" smooth="yes"/>
      <point x="1271.4" y="830.14"/>
      <point x="1440.8600000000001" y="604.46"/>
      <point x="1440.8600000000001" y="425.48" type="qcurve" smooth="yes"/>
      <point x="1440.8600000000001" y="230.84"/>
      <point x="1268.64" y="-13.46"/>
      <point x="1130.3400000000001" y="-13.46" type="qcurve" smooth="yes"/>
      <point x="991.2" y="-13.46"/>
      <point x="825.34" y="235.5"/>
    </contour>
    <contour>
      <point x="885.94" y="419.96" type="qcurve" smooth="yes"/>
      <point x="887.4000000000001" y="237.38"/>
      <point x="1005.6" y="-5.16"/>
      <point x="1132.1" y="-5.16" type="qcurve" smooth="yes"/>
      <point x="1255.62" y="-5.16"/>
      <point x="1380.72" y="234.88"/>
      <point x="1380.72" y="424.1" type="qcurve" smooth="yes"/>
      <point x="1380.72" y="607.38"/>
      <point x="1257.92" y="820.3"/>
      <point x="1132.56" y="820.3" type="qcurve" smooth="yes"/>
      <point x="1010.5" y="820.3"/>
      <point x="884.48" y="592.28"/>
    </contour>
  </outline>
</glyph>
<glyph name="quotesingle" format="2">
  <advance width="317"/>
  <unicode hex="0027"/>
  <outline>
    <contour>
      <point x="149.36" y="964.0" type="line"/>
      <point x="124.44" y="1467.8" type="line"/>
      <point x="123.44" y="1520.8"/>
      <point x="136.52" y="1558.0"/>
      <point x="158.28" y="1558.0" type="qcurve" smooth="yes"/>
      <point x="179.5" y="1558.0"/>
      <point x="193.57999999999998" y="1520.8"/>
      <point x="192.57999999999998" y="1467.8" type="qcurve"/>
      <point x="164.28" y="964.0" type="line"/>
    </contour>
  </outline>
</glyph>
<glyph name="asterisk" format="2">
  <advance width="660"/>
  <unicode hex="002A"/>
  <outline>
    <contour>
      <point x="329.74" y="878.96" type="qcurve" smooth="yes"/>
      <point x="319.88" y="878.96"/>
      <point x="305.36" y="881.08"/>
      <point x="308.9" y="956.56" type="qcurve" smooth="yes"/>
      <point x="323.09" y="1179.015" type="line"/>
      <point x="320.252" y="1181.61" type="line"/>
      <point x="140.72" y="1060.84" type="line" smooth="yes"/>
      <point x="62.6" y="1007.02"/>
      <point x="47.6" y="1019.3"/>
      <point x="43.44" y="1026.08" type="qcurve" smooth="yes"/>
      <point x="38.2" y="1034.4"/>
      <point x="38.0" y="1058.62"/>
      <point x="120.5" y="1100.44" type="qcurve" smooth="yes"/>
      <point x="312.71" y="1191.882" type="line"/>
      <point x="313.007" y="1194.369" type="line"/>
      <point x="121.04" y="1288.08" type="line" smooth="yes"/>
      <point x="37.46" y="1329.6"/>
      <point x="38.980000000000004" y="1349.04"/>
      <point x="42.06" y="1355.82" type="qcurve" smooth="yes"/>
      <point x="45.14" y="1362.6"/>
      <point x="62.6" y="1380.96"/>
      <point x="141.8" y="1326.06" type="qcurve" smooth="yes"/>
      <point x="320.063" y="1205.21" type="line"/>
      <point x="322.144" y="1208.345" type="line"/>
      <point x="308.9" y="1430.8" type="line" smooth="yes"/>
      <point x="305.36" y="1505.62"/>
      <point x="318.96" y="1520.0"/>
      <point x="329.74" y="1520.0" type="qcurve" smooth="yes"/>
      <point x="339.44" y="1520.0"/>
      <point x="354.74" y="1508.68"/>
      <point x="352.58" y="1430.8" type="qcurve" smooth="yes"/>
      <point x="338.39" y="1208.345" type="line"/>
      <point x="340.931" y="1205.21" type="line"/>
      <point x="515.22" y="1326.06" type="line" smooth="yes"/>
      <point x="591.02" y="1378.8"/>
      <point x="611.72" y="1364.68"/>
      <point x="615.42" y="1358.36" type="qcurve" smooth="yes"/>
      <point x="620.12" y="1349.5"/>
      <point x="614.46" y="1326.36"/>
      <point x="539.82" y="1288.08" type="qcurve" smooth="yes"/>
      <point x="348.23" y="1194.478" type="line"/>
      <point x="347.473" y="1190.991" type="line"/>
      <point x="540.9" y="1100.44" type="line" smooth="yes"/>
      <point x="622.32" y="1062.46"/>
      <point x="615.58" y="1038.32"/>
      <point x="611.42" y="1029.54" type="qcurve" smooth="yes"/>
      <point x="608.26" y="1023.22"/>
      <point x="590.26" y="1011.18"/>
      <point x="515.76" y="1061.92" type="qcurve" smooth="yes"/>
      <point x="340.877" y="1181.61" type="line"/>
      <point x="338.28200000000004" y="1179.015" type="line"/>
      <point x="352.58" y="956.56" type="line" smooth="yes"/>
      <point x="356.12" y="881.08"/>
      <point x="338.14" y="878.96"/>
    </contour>
  </outline>
</glyph>
<glyph name="comma" format="2">
  <advance width="403"/>
  <unicode hex="002C"/>
  <outline>
    <contour>
      <point x="115.78" y="-173.1" type="line"/>
      <point x="164.98" y="-130.36"/>
      <point x="216.0" y="-51.68"/>
      <point x="223.54" y="9.1" type="qcurve"/>
      <point x="182.9" y="-0.9800000000000004"/>
      <point x="139.84" y="31.32"/>
      <point x="139.84" y="57.7" type="qcurve" smooth="yes"/>
      <point x="139.84" y="84.62"/>
      <point x="175.68" y="115.38"/>
      <point x="198.52" y="115.38" type="qcurve" smooth="yes"/>
      <point x="222.9" y="115.38"/>
      <point x="256.74" y="82.54"/>
      <point x="256.74" y="48.16" type="qcurve" smooth="yes"/>
      <point x="256.74" y="-8.78"/>
      <point x="174.22" y="-140.88"/>
      <point x="123.7" y="-182.02" type="qcurve"/>
    </contour>
  </outline>
</glyph>
<glyph name="two" format="2">
  <advance width="788"/>
  <unicode hex="0032"/>
  <outline>
    <contour>
      <point x="46.92" y="0.0" type="line"/>
      <point x="46.92" y="71.7" type="line" smooth="yes"/>
      <point x="54.74" y="198.16"/>
      <point x="192.42000000000002" y="475.34"/>
      <point x="358.6" y="617.0" type="qcurve" smooth="yes"/>
      <point x="507.70000000000005" y="740.4"/>
      <point x="670.28" y="999.88"/>
      <point x="669.74" y="1176.5" type="qcurve" smooth="yes"/>
      <point x="669.2" y="1333.34"/>
      <point x="525.32" y="1495.14"/>
      <point x="385.0" y="1495.14" type="qcurve" smooth="yes"/>
      <point x="268.0" y="1495.14"/>
      <point x="124.98" y="1405.02"/>
      <point x="97.58" y="1364.72" type="qcurve"/>
      <point x="79.72" y="1375.32" type="line"/>
      <point x="106.66" y="1422.48"/>
      <point x="261.18" y="1521.46"/>
      <point x="387.70000000000005" y="1521.92" type="qcurve" smooth="yes"/>
      <point x="553.64" y="1521.46"/>
      <point x="727.32" y="1352.72"/>
      <point x="727.86" y="1184.58" type="qcurve" smooth="yes"/>
      <point x="728.4" y="995.48"/>
      <point x="542.44" y="737.4"/>
      <point x="370.14" y="599.7" type="qcurve" smooth="yes"/>
      <point x="210.07999999999998" y="464.26"/>
      <point x="78.04" y="190.62"/>
      <point x="72.06" y="74.7" type="qcurve"/>
      <point x="72.06" y="71.08" type="line"/>
      <point x="772.72" y="71.08" type="line"/>
      <point x="772.72" y="0.0" type="line"/>
    </contour>
  </outline>
</glyph>
<glyph name="semicolon" format="2">
  <advance width="379"/>
  <unicode hex="003B"/>
  <outline>
    <contour>
      <point x="107.04" y="-168.04" type="line"/>
      <point x="153.94" y="-124.84"/>
      <point x="205.48" y="-50.76"/>
      <point x="216.18" y="10.02" type="qcurve"/>
      <point x="176.46" y="1.3199999999999998"/>
      <point x="140.3" y="30.4"/>
      <point x="140.3" y="54.48" type="qcurve" smooth="yes"/>
      <point x="140.3" y="82.32"/>
      <point x="174.3" y="110.78"/>
      <point x="196.68" y="110.78" type="qcurve" smooth="yes"/>
      <point x="220.6" y="110.78"/>
      <point x="252.6" y="76.1"/>
      <point x="252.6" y="47.7" type="qcurve" smooth="yes"/>
      <point x="252.6" y="-7.3999999999999995"/>
      <point x="165.02" y="-136.74"/>
      <point x="114.04" y="-177.42" type="qcurve"/>
    </contour>
    <contour>
      <point x="141.72" y="814.88" type="qcurve" smooth="yes"/>
      <point x="141.72" y="836.88"/>
      <point x="174.26" y="871.26"/>
      <point x="199.72" y="871.26" type="qcurve" smooth="yes"/>
      <point x="225.18" y="871.26"/>
      <point x="258.18" y="836.88"/>
      <point x="258.18" y="814.88" type="qcurve" smooth="yes"/>
      <point x="258.18" y="788.42"/>
      <point x="225.18" y="754.04"/>
      <point x="199.72" y="754.04" type="qcurve" smooth="yes"/>
      <point x="174.26" y="754.04"/>
      <point x="141.72" y="788.42"/>
    </contour>
  </outline>
</glyph>
<glyph name="equal" format="2">
  <advance width="890"/>
  <unicode hex="003D"/>
  <outline>
    <contour>
      <point x="100.62" y="469.6" type="line"/>
      <point x="100.62" y="488.96" type="line"/>
      <point x="443.38" y="495.06" type="line"/>
      <point x="789.6" y="488.5" type="line"/>
      <point x="789.8077419354839" y="469.6" type="line"/>
      <point x="443.48387096774195" y="464.5" type="line"/>
    </contour>
    <contour>
      <point x="100.62" y="724.88" type="line"/>
      <point x="100.62" y="743.78" type="line"/>
      <point x="443.38" y="748.88" type="line"/>
      <point x="789.6" y="743.78" type="line"/>
      <point x="789.6" y="724.88" type="line"/>
      <point x="443.38" y="718.78" type="line"/>
    </contour>
  </outline>
</glyph>
<glyph name="at" format="2">
  <advance width="1461"/>
  <unicode hex="0040"/>
  <outline>
    <contour>
      <point x="40.08" y="753.1" type="qcurve" smooth="yes"/>
      <point x="40.08" y="1094.64"/>
      <point x="465.78" y="1515.0"/>
      <point x="745.84" y="1515.0" type="qcurve" smooth="yes"/>
      <point x="1046.68" y="1515.0"/>
      <point x="1418.44" y="1116.0"/>
      <point x="1418.44" y="818.98" type="qcurve" smooth="yes"/>
      <point x="1418.44" y="602.02"/>
      <point x="1219.58" y="363.02"/>
      <point x="1072.96" y="363.02" type="qcurve" smooth="yes"/>
      <point x="982.26" y="363.02"/>
      <point x="902.0" y="447.9"/>
      <point x="897.48" y="527.68" type="qcurve"/>
      <point x="881.9000000000001" y="472.76"/>
      <point x="737.3" y="370.4"/>
      <point x="645.38" y="370.4" type="qcurve" smooth="yes"/>
      <point x="544.16" y="370.4"/>
      <point x="410.72" y="464.24"/>
      <point x="410.72" y="564.46" type="qcurve" smooth="yes"/>
      <point x="410.72" y="679.08"/>
      <point x="641.4200000000001" y="830.34"/>
      <point x="924.24" y="837.0" type="qcurve"/>
      <point x="924.1600000000001" y="824.46" type="line"/>
      <point x="652.24" y="819.88"/>
      <point x="472.28" y="665.2"/>
      <point x="472.28" y="559.16" type="qcurve" smooth="yes"/>
      <point x="472.28" y="471.6"/>
      <point x="554.38" y="383.02"/>
      <point x="644.76" y="383.02" type="qcurve" smooth="yes"/>
      <point x="739.38" y="383.02"/>
      <point x="892.5" y="499.68"/>
      <point x="899.48" y="602.0" type="qcurve" smooth="yes"/>
      <point x="901.94" y="890.0" type="line" smooth="yes"/>
      <point x="902.86" y="1038.0"/>
      <point x="783.12" y="1148.6"/>
      <point x="696.6" y="1148.6" type="qcurve" smooth="yes"/>
      <point x="622.46" y="1148.6"/>
      <point x="520.0" y="1080.78"/>
      <point x="505.72" y="1041.16" type="qcurve"/>
      <point x="531.72" y="1033.56"/>
      <point x="581.4" y="993.42"/>
      <point x="581.4" y="965.2" type="qcurve" smooth="yes"/>
      <point x="581.4" y="936.76"/>
      <point x="551.96" y="908.7"/>
      <point x="526.52" y="908.7" type="qcurve" smooth="yes"/>
      <point x="497.84000000000003" y="908.7"/>
      <point x="463.94" y="950.46"/>
      <point x="463.94" y="991.14" type="qcurve" smooth="yes"/>
      <point x="463.94" y="1060.74"/>
      <point x="607.94" y="1164.6"/>
      <point x="704.78" y="1164.6" type="qcurve" smooth="yes"/>
      <point x="817.94" y="1164.6"/>
      <point x="956.28" y="1036.02"/>
      <point x="955.44" y="885.82" type="qcurve" smooth="yes"/>
      <point x="953.84" y="524.8" type="line" smooth="yes"/>
      <point x="953.9200000000001" y="451.8"/>
      <point x="1027.48" y="388.12"/>
      <point x="1078.6399999999999" y="388.12" type="qcurve" smooth="yes"/>
      <point x="1220.12" y="388.12"/>
      <point x="1394.16" y="610.86"/>
      <point x="1394.16" y="816.98" type="qcurve" smooth="yes"/>
      <point x="1394.16" y="1122.72"/>
      <point x="1028.88" y="1502.16"/>
      <point x="748.06" y="1502.16" type="qcurve" smooth="yes"/>
      <point x="471.70000000000005" y="1502.16"/>
      <point x="77.53999999999999" y="1094.0"/>
      <point x="77.53999999999999" y="759.92" type="qcurve" smooth="yes"/>
      <point x="78.0" y="387.88"/>
      <point x="437.92" y="-12.0"/>
      <point x="727.04" y="-12.0" type="qcurve" smooth="yes"/>
      <point x="857.5799999999999" y="-12.0"/>
      <point x="1094.54" y="90.12"/>
      <point x="1144.44" y="146.32" type="qcurve"/>
      <point x="1151.82" y="139.64" type="line"/>
      <point x="1100.24" y="77.9"/>
      <point x="857.34" y="-25.0"/>
      <point x="730.34" y="-25.0" type="qcurve" smooth="yes"/>
      <point x="431.62" y="-25.0"/>
      <point x="40.08" y="370.6"/>
    </contour>
  </outline>
</glyph>
<glyph name="A" format="2">
  <advance width="1287"/>
  <unicode hex="0041"/>
  <outline>
    <contour>
      <point x="-28.46" y="0.0" type="line"/>
      <point x="-27.54" y="15.84" type="line"/>
      <point x="140.06" y="49.84" type="line"/>
      <point x="326.82" y="601.02" type="line"/>
      <point x="626.86" y="1506.0" type="line"/>
      <point x="685.8" y="1506.0" type="line"/>
      <point x="958.8" y="608.08" type="line"/>
      <point x="1132.58" y="45.14" type="line"/>
      <point x="1310.52" y="15.84" type="line"/>
      <point x="1309.6" y="0.0" type="line"/>
      <point x="884.24" y="0.0" type="line"/>
      <point x="886.1600000000001" y="15.84" type="line"/>
      <point x="1067.28" y="47.14" type="line"/>
      <point x="902.88" y="593.72" type="line"/>
      <point x="639.26" y="1462.62" type="line"/>
      <point x="350.74" y="593.8" type="line"/>
      <point x="169.12" y="52.3" type="line"/>
      <point x="356.36" y="15.84" type="line"/>
      <point x="355.44" y="0.0" type="line"/>
    </contour>
    <contour>
      <point x="646.04" y="604.18" type="line"/>
      <point x="928.94" y="607.64" type="line"/>
      <point x="937.46" y="581.5" type="line"/>
      <point x="645.12" y="582.42" type="line"/>
    </contour>
    <contour>
      <point x="334.98" y="579.5" type="line"/>
      <point x="344.66" y="609.64" type="line"/>
      <point x="646.04" y="604.18" type="line"/>
      <point x="645.12" y="582.42" type="line"/>
    </contour>
  </outline>
</glyph>
<glyph name="B" format="2">
  <advance width="1171"/>
  <unicode hex="0042"/>
  <outline>
    <contour>
      <point x="64.24000000000001" y="0.0" type="line"/>
      <point x="64.24000000000001" y="15.84" type="line"/>
      <point x="242.48000000000002" y="49.84" type="line"/>
      <point x="244.48000000000002" y="760.0" type="line"/>
      <point x="242.48000000000002" y="1447.24" type="line"/>
      <point x="64.24000000000001" y="1481.24" type="line"/>
      <point x="64.24000000000001" y="1500.0" type="line"/>
      <point x="530.38" y="1500.0" type="line" smooth="yes"/>
      <point x="777.9200000000001" y="1500.0"/>
      <point x="997.08" y="1332.68"/>
      <point x="997.08" y="1188.76" type="qcurve" smooth="yes"/>
      <point x="997.08" y="1051.7"/>
      <point x="840.14" y="874.94"/>
      <point x="727.14" y="853.0" type="qcurve"/>
      <point x="727.14" y="848.0" type="line"/>
      <point x="875.74" y="839.36"/>
      <point x="1111.8" y="640.42"/>
      <point x="1112.26" y="458.64" type="qcurve" smooth="yes"/>
      <point x="1112.72" y="249.2"/>
      <point x="838.28" y="0.0"/>
      <point x="586.52" y="0.0" type="qcurve" smooth="yes"/>
    </contour>
    <contour>
      <point x="300.7" y="36.0" type="line"/>
      <point x="317.48" y="24.22" type="line"/>
      <point x="610.52" y="22.22" type="line" smooth="yes"/>
      <point x="807.96" y="20.68"/>
      <point x="1042.96" y="217.0"/>
      <point x="1042.96" y="449.0" type="qcurve" smooth="yes"/>
      <point x="1042.96" y="652.0"/>
      <point x="814.5" y="836.0"/>
      <point x="635.9200000000001" y="836.0" type="qcurve" smooth="yes"/>
      <point x="297.54" y="836.0" type="line"/>
      <point x="296.7" y="827.0" type="line"/>
    </contour>
    <contour>
      <point x="298.24" y="866.0" type="line"/>
      <point x="297.08" y="852.0" type="line"/>
      <point x="618.0799999999999" y="852.0" type="line" smooth="yes"/>
      <point x="768.62" y="852.0"/>
      <point x="926.96" y="1040.0"/>
      <point x="926.96" y="1188.0" type="qcurve" smooth="yes"/>
      <point x="926.96" y="1338.16"/>
      <point x="749.7" y="1477.92"/>
      <point x="547.66" y="1477.92" type="qcurve" smooth="yes"/>
      <point x="326.46000000000004" y="1477.92" type="line"/>
      <point x="300.7" y="1454.54" type="line"/>
    </contour>
  </outline>
</glyph>
<glyph name="D" format="2">
  <advance width="1323"/>
  <unicode hex="0044"/>
  <outline>
    <contour>
      <point x="64.24000000000001" y="0.0" type="line"/>
      <point x="64.24000000000001" y="15.3" type="line"/>
      <point x="242.48000000000002" y="54.3" type="line"/>
      <point x="244.48000000000002" y="759.0" type="line"/>
      <point x="242.48000000000002" y="1445.024" type="line"/>
      <point x="64.24000000000001" y="1481.84" type="line"/>
      <point x="64.24000000000001" y="1500.0" type="line"/>
      <point x="609.56" y="1501.62" type="line" smooth="yes"/>
      <point x="911.34" y="1502.7"/>
      <point x="1254.3600000000001" y="1153.5"/>
      <point x="1254.3600000000001" y="777.0" type="qcurve" smooth="yes"/>
      <point x="1254.3600000000001" y="416.36"/>
      <point x="934.1" y="-4.140000000000001"/>
      <point x="639.94" y="-2.7600000000000002" type="qcurve" smooth="yes"/>
    </contour>
    <contour>
      <point x="299.78" y="39.86" type="line"/>
      <point x="325.2" y="32.86"/>
      <point x="529.1800000000001" y="16.4"/>
      <point x="631.12" y="16.4" type="qcurve" smooth="yes"/>
      <point x="910.6" y="16.4"/>
      <point x="1186.7533870967743" y="385.0289677419355"/>
      <point x="1187.445806451613" y="767.971" type="qcurve" smooth="yes"/>
      <point x="1187.5982258064516" y="1145.6985161290322"/>
      <point x="880.7659677419355" y="1483.0"/>
      <point x="598.4764516129032" y="1483.0" type="qcurve" smooth="yes"/>
      <point x="511.198870967742" y="1483.0"/>
      <point x="331.78629032258067" y="1474.646"/>
      <point x="299.9324193548387" y="1469.1889999999999" type="qcurve"/>
      <point x="296.86" y="764.16" type="line"/>
    </contour>
  </outline>
</glyph>
<glyph name="E" format="2">
  <advance width="1175"/>
  <unicode hex="0045"/>
  <outline>
    <contour>
      <point x="64.24000000000001" y="0.0" type="line"/>
      <point x="64.24000000000001" y="15.84" type="line"/>
      <point x="243.02" y="46.84" type="line"/>
      <point x="245.02" y="756.0" type="line"/>
      <point x="243.02" y="1450.24" type="line"/>
      <point x="64.24000000000001" y="1483.78" type="line"/>
      <point x="64.24000000000001" y="1500.0" type="line"/>
      <point x="1024.92" y="1500.0" type="line"/>
      <point x="1034.12" y="1148.4" type="line"/>
      <point x="1016.98" y="1148.4" type="line"/>
      <point x="933.72" y="1482.0" type="line"/>
      <point x="339.76" y="1482.0" type="line"/>
      <point x="301.7" y="1458.0" type="line"/>
      <point x="299.24" y="787.0" type="line"/>
      <point x="301.7" y="50.22" type="line"/>
      <point x="343.22" y="20.22" type="line"/>
      <point x="990.26" y="20.22" type="line"/>
      <point x="1103.28" y="396.2" type="line"/>
      <point x="1118.42" y="396.2" type="line"/>
      <point x="1075.32" y="0.0" type="line"/>
    </contour>
    <contour>
      <point x="287.82" y="774.86" type="line"/>
      <point x="287.36" y="792.68" type="line"/>
      <point x="822.14" y="797.38" type="line"/>
      <point x="884.8" y="1006.0" type="line"/>
      <point x="895.8" y="1006.0" type="line"/>
      <point x="895.8" y="563.0" type="line"/>
      <point x="884.8" y="563.0" type="line"/>
      <point x="822.14" y="775.62" type="line"/>
    </contour>
  </outline>
</glyph>
<glyph name="F" format="2">
  <advance width="1016"/>
  <unicode hex="0046"/>
  <outline>
    <contour>
      <point x="64.24000000000001" y="0.0" type="line"/>
      <point x="64.24000000000001" y="15.84" type="line"/>
      <point x="243.02" y="48.84" type="line"/>
      <point x="245.02" y="766.76" type="line"/>
      <point x="243.02" y="1447.24" type="line"/>
      <point x="64.24000000000001" y="1480.78" type="line"/>
      <point x="64.24000000000001" y="1500.0" type="line"/>
      <point x="984.08" y="1500.0" type="line"/>
      <point x="984.08" y="1138.4" type="line"/>
      <point x="970.4000000000001" y="1138.4" type="line"/>
      <point x="892.26" y="1479.62" type="line"/>
      <point x="316.76" y="1481.0" type="line"/>
      <point x="297.16" y="1442.0" type="line"/>
      <point x="298.7" y="815.0" type="line"/>
      <point x="300.7" y="53.3" type="line"/>
      <point x="487.36" y="15.84" type="line"/>
      <point x="487.36" y="0.0" type="line"/>
    </contour>
    <contour>
      <point x="282.2" y="777.7" type="line"/>
      <point x="282.2" y="799.3" type="line"/>
      <point x="804.86" y="797.38" type="line"/>
      <point x="867.76" y="996.0" type="line"/>
      <point x="881.84" y="996.0" type="line"/>
      <point x="881.84" y="540.0" type="line"/>
      <point x="867.76" y="540.0" type="line"/>
      <point x="804.86" y="771.62" type="line"/>
    </contour>
  </outline>
</glyph>
<glyph name="G" format="2">
  <advance width="1328"/>
  <unicode hex="0047"/>
  <outline>
    <contour>
      <point x="69.26" y="754.62" type="qcurve" smooth="yes"/>
      <point x="69.26" y="1099.84"/>
      <point x="418.65999999999997" y="1518.92"/>
      <point x="658.74" y="1518.92" type="qcurve" smooth="yes"/>
      <point x="825.44" y="1518.92"/>
      <point x="1045.12" y="1397.26"/>
      <point x="1081.28" y="1348.08" type="qcurve"/>
      <point x="1117.42" y="1491.08" type="line"/>
      <point x="1131.1" y="1490.08" type="line"/>
      <point x="1131.1" y="1030.08" type="line"/>
      <point x="1116.64" y="1030.08" type="line"/>
      <point x="1084.14" y="1208.12" type="line" smooth="yes"/>
      <point x="1058.0" y="1361.42"/>
      <point x="808.6800000000001" y="1501.62"/>
      <point x="657.9" y="1501.62" type="qcurve" smooth="yes"/>
      <point x="439.42" y="1501.62"/>
      <point x="134.08" y="1152.88"/>
      <point x="134.08" y="775.84" type="qcurve" smooth="yes"/>
      <point x="134.08" y="394.78"/>
      <point x="444.18" y="-2.9000000000000004"/>
      <point x="682.0" y="-2.9000000000000004" type="qcurve" smooth="yes"/>
      <point x="819.24" y="-2.9000000000000004"/>
      <point x="1058.44" y="82.58"/>
      <point x="1098.28" y="115.16" type="qcurve"/>
      <point x="1096.9" y="666.0" type="line"/>
      <point x="900.22" y="693.0" type="line"/>
      <point x="900.22" y="705.0" type="line"/>
      <point x="1323.3400000000001" y="705.0" type="line"/>
      <point x="1323.3400000000001" y="693.0" type="line"/>
      <point x="1155.04" y="666.0" type="line"/>
      <point x="1155.04" y="121.9" type="line"/>
      <point x="1088.18" y="65.86"/>
      <point x="813.94" y="-21.14"/>
      <point x="669.2" y="-21.14" type="qcurve" smooth="yes"/>
      <point x="423.82" y="-21.14"/>
      <point x="69.26" y="380.92"/>
    </contour>
  </outline>
</glyph>
<glyph name="I" format="2">
  <advance width="558"/>
  <unicode hex="0049"/>
  <outline>
    <contour>
      <point x="74.24000000000001" y="0.0" type="line"/>
      <point x="74.24000000000001" y="15.84" type="line"/>
      <point x="248.64" y="50.84" type="line"/>
      <point x="250.64" y="754.0" type="line"/>
      <point x="248.64" y="1447.3210000000001" type="line"/>
      <point x="74.24000000000001" y="1481.3210000000001" type="line"/>
      <point x="74.24000000000001" y="1500.0" type="line"/>
      <point x="483.8" y="1500.0" type="line"/>
      <point x="483.8" y="1481.3210000000001" type="line"/>
      <point x="309.4" y="1447.3210000000001" type="line"/>
      <point x="307.4" y="754.0" type="line"/>
      <point x="309.4" y="49.84" type="line"/>
      <point x="483.8" y="15.84" type="line"/>
      <point x="483.8" y="0.0" type="line"/>
    </contour>
  </outline>
</glyph>
<glyph name="J" format="2">
  <advance width="566"/>
  <unicode hex="004A"/>
  <outline>
    <contour>
      <point x="4.900000000000002" y="8.32" type="qcurve"/>
      <point x="11.900000000000002" y="27.56" type="line"/>
      <point x="21.98" y="20.939999999999998"/>
      <point x="85.68" y="8.559999999999999"/>
      <point x="126.82" y="8.559999999999999" type="qcurve" smooth="yes"/>
      <point x="202.34" y="8.559999999999999"/>
      <point x="299.65999999999997" y="143.34"/>
      <point x="301.12" y="313.38" type="qcurve" smooth="yes"/>
      <point x="304.04" y="674.0" type="line"/>
      <point x="301.58" y="1447.24" type="line"/>
      <point x="92.64" y="1481.24" type="line"/>
      <point x="92.64" y="1500.0" type="line"/>
      <point x="562.2" y="1500.0" type="line"/>
      <point x="562.2" y="1481.24" type="line"/>
      <point x="360.72" y="1447.24" type="line"/>
      <point x="358.72" y="674.0" type="line"/>
      <point x="353.86" y="272.56" type="line" smooth="yes"/>
      <point x="352.24" y="139.1"/>
      <point x="229.54000000000002" y="-18.060000000000002"/>
      <point x="133.72" y="-18.060000000000002" type="qcurve" smooth="yes"/>
      <point x="79.76" y="-18.060000000000002"/>
      <point x="18.740000000000002" y="-0.14000000000000057"/>
    </contour>
  </outline>
</glyph>
<glyph name="K" format="2">
  <advance width="1161"/>
  <unicode hex="004B"/>
  <outline>
    <contour>
      <point x="64.24000000000001" y="0.0" type="line"/>
      <point x="64.24000000000001" y="15.84" type="line"/>
      <point x="242.48000000000002" y="50.84" type="line"/>
      <point x="244.48000000000002" y="754.0" type="line"/>
      <point x="242.48000000000002" y="1447.24" type="line"/>
      <point x="64.24000000000001" y="1481.24" type="line"/>
      <point x="64.24000000000001" y="1500.0" type="line"/>
      <point x="492.9" y="1500.0" type="line"/>
      <point x="492.9" y="1481.24" type="line"/>
      <point x="302.16" y="1447.24" type="line"/>
      <point x="298.78" y="754.0" type="line"/>
      <point x="302.16" y="50.84" type="line"/>
      <point x="483.70000000000005" y="15.84" type="line"/>
      <point x="483.70000000000005" y="0.0" type="line"/>
    </contour>
    <contour>
      <point x="275.08" y="565.06" type="line"/>
      <point x="273.62" y="592.24" type="line"/>
      <point x="980.74" y="1441.92" type="line"/>
      <point x="778.02" y="1481.24" type="line"/>
      <point x="778.02" y="1500.0" type="line"/>
      <point x="1215.62" y="1500.0" type="line"/>
      <point x="1215.62" y="1481.24" type="line"/>
      <point x="1009.02" y="1440.92" type="line"/>
      <point x="537.56" y="882.84" type="line"/>
      <point x="528.88" y="873.38" type="line"/>
    </contour>
    <contour>
      <point x="509.58000000000004" y="857.98" type="line"/>
      <point x="549.1" y="911.94" type="line"/>
      <point x="1089.8400000000001" y="49.38" type="line"/>
      <point x="1277.88" y="15.84" type="line"/>
      <point x="1277.88" y="0.0" type="line"/>
      <point x="838.78" y="0.0" type="line"/>
      <point x="838.78" y="15.84" type="line"/>
      <point x="1017.34" y="49.38" type="line"/>
    </contour>
  </outline>
</glyph>
<glyph name="M" format="2">
  <advance width="1627"/>
  <unicode hex="004D"/>
  <outline>
    <contour>
      <point x="64.0" y="0.0" type="line"/>
      <point x="64.0" y="15.84" type="line"/>
      <point x="255.62" y="68.84" type="line"/>
      <point x="259.08" y="746.0" type="line"/>
      <point x="259.24" y="1442.56" type="line"/>
      <point x="62.4" y="1481.24" type="line"/>
      <point x="62.4" y="1500.0" type="line"/>
      <point x="317.78" y="1500.0" type="line"/>
      <point x="576.96" y="742.86" type="line"/>
      <point x="815.7" y="60.74" type="line"/>
      <point x="1069.14" y="770.28" type="line"/>
      <point x="1325.44" y="1499.08" type="line"/>
      <point x="1562.26" y="1500.0" type="line"/>
      <point x="1562.26" y="1480.7" type="line"/>
      <point x="1384.56" y="1442.56" type="line"/>
      <point x="1382.56" y="751.0" type="line"/>
      <point x="1384.56" y="50.84" type="line"/>
      <point x="1562.26" y="15.84" type="line"/>
      <point x="1562.26" y="0.0" type="line"/>
      <point x="1144.5" y="2.0" type="line"/>
      <point x="1144.5" y="17.84" type="line"/>
      <point x="1326.04" y="50.84" type="line"/>
      <point x="1326.96" y="750.0" type="line"/>
      <point x="1320.8" y="1392.4" type="line"/>
      <point x="1088.68" y="761.14" type="line"/>
      <point x="820.1800000000001" y="2.3000000000000003" type="line"/>
      <point x="772.02" y="2.3000000000000003" type="line"/>
      <point x="528.88" y="716.8" type="line"/>
      <point x="283.82" y="1408.2" type="line"/>
      <point x="280.36" y="743.0" type="line"/>
      <point x="278.36" y="68.84" type="line"/>
      <point x="464.46000000000004" y="17.84" type="line"/>
      <point x="464.46000000000004" y="2.0" type="line"/>
    </contour>
  </outline>
</glyph>
<glyph name="P" format="2">
  <advance width="1099"/>
  <unicode hex="0050"/>
  <outline>
    <contour>
      <point x="65.24000000000001" y="0.0" type="line"/>
      <point x="65.24000000000001" y="15.3" type="line"/>
      <point x="242.48000000000002" y="49.22" type="line"/>
      <point x="244.48000000000002" y="762.0" type="line"/>
      <point x="243.02" y="1447.24" type="line"/>
      <point x="64.24000000000001" y="1482.16" type="line"/>
      <point x="64.24000000000001" y="1500.0" type="line"/>
      <point x="603.8304838709678" y="1500.0" type="line" smooth="yes"/>
      <point x="790.3199999999999" y="1500.0"/>
      <point x="1020.891129032258" y="1297.8456774193548"/>
      <point x="1020.891129032258" y="1101.9376774193547" type="qcurve" smooth="yes"/>
      <point x="1020.891129032258" y="885.9926774193549"/>
      <point x="774.56" y="635.78"/>
      <point x="557.7" y="635.78" type="qcurve" smooth="yes"/>
      <point x="492.9" y="635.78"/>
      <point x="321.62" y="651.54"/>
      <point x="283.74" y="663.688" type="qcurve"/>
      <point x="286.12" y="683.4" type="line"/>
      <point x="325.56" y="672.0"/>
      <point x="512.58" y="655.32"/>
      <point x="581.14" y="655.32" type="qcurve" smooth="yes"/>
      <point x="740.1800000000001" y="655.32"/>
      <point x="955.06" y="851.16"/>
      <point x="955.06" y="1095.0" type="qcurve" smooth="yes"/>
      <point x="955.06" y="1292.0"/>
      <point x="753.94" y="1479.62"/>
      <point x="582.06" y="1478.08" type="qcurve" smooth="yes"/>
      <point x="318.54" y="1477.0" type="line"/>
      <point x="300.08" y="1449.46" type="line"/>
      <point x="298.7" y="766.0" type="line"/>
      <point x="300.7" y="51.92" type="line"/>
      <point x="495.32" y="15.38" type="line"/>
      <point x="495.32" y="0.0" type="line"/>
    </contour>
  </outline>
</glyph>
<glyph name="Q" format="2">
  <advance width="1355"/>
  <unicode hex="0051"/>
  <outline>
    <contour>
      <point x="68.72" y="744.0" type="qcurve" smooth="yes"/>
      <point x="68.72" y="1078.78"/>
      <point x="413.42" y="1519.0"/>
      <point x="675.86" y="1519.0" type="qcurve" smooth="yes"/>
      <point x="944.12" y="1519.0"/>
      <point x="1285.76" y="1096.7"/>
      <point x="1285.76" y="758.14" type="qcurve" smooth="yes"/>
      <point x="1285.76" y="422.86"/>
      <point x="952.1400000000001" y="-16.22"/>
      <point x="688.1600000000001" y="-16.22" type="qcurve" smooth="yes"/>
      <point x="438.96000000000004" y="-16.22"/>
      <point x="68.72" y="390.2"/>
    </contour>
    <contour>
      <point x="134.78" y="785.16" type="qcurve" smooth="yes"/>
      <point x="134.32" y="394.66"/>
      <point x="455.96000000000004" y="1.5599999999999996"/>
      <point x="688.32" y="1.5599999999999996" type="qcurve" smooth="yes"/>
      <point x="929.36" y="1.5599999999999996"/>
      <point x="1222.32" y="384.64"/>
      <point x="1222.32" y="753.64" type="qcurve" smooth="yes"/>
      <point x="1222.32" y="1104.4"/>
      <point x="916.98" y="1502.08"/>
      <point x="672.86" y="1502.08" type="qcurve" smooth="yes"/>
      <point x="442.42" y="1502.08"/>
      <point x="135.24" y="1149.04"/>
    </contour>
    <contour>
      <point x="206.60000000000002" y="-269.8" type="qcurve"/>
      <point x="195.48000000000002" y="-251.6" type="line"/>
      <point x="206.12" y="-233.06"/>
      <point x="429.88" y="-83.8"/>
      <point x="478.58000000000004" y="-55.96" type="qcurve" smooth="yes"/>
      <point x="710.24" y="156.7" type="line"/>
      <point x="717.86" y="139.84" type="line"/>
      <point x="493.4" y="-66.82" type="line"/>
      <point x="971.8" y="-277.94" type="line"/>
      <point x="1038.3600000000001" y="-279.32"/>
      <point x="1169.46" y="-171.42"/>
      <point x="1213.58" y="-93.42" type="qcurve"/>
      <point x="1220.26" y="-97.8" type="line"/>
      <point x="1183.62" y="-192.8"/>
      <point x="1030.74" y="-335.2"/>
      <point x="964.34" y="-344.2" type="qcurve"/>
      <point x="525.64" y="-154.22" type="line" smooth="yes"/>
      <point x="452.18" y="-117.12"/>
      <point x="282.08" y="-201.8"/>
    </contour>
  </outline>
</glyph>
<glyph name="R" format="2">
  <advance width="1144"/>
  <unicode hex="0052"/>
  <outline>
    <contour>
      <point x="66.24000000000001" y="0.0" type="line"/>
      <point x="66.24000000000001" y="15.3" type="line"/>
      <point x="242.48000000000002" y="49.76" type="line"/>
      <point x="244.48000000000002" y="779.4" type="line"/>
      <point x="242.48000000000002" y="1449.24" type="line"/>
      <point x="64.24000000000001" y="1483.01" type="line"/>
      <point x="64.24000000000001" y="1500.0" type="line"/>
      <point x="579.46" y="1500.0" type="line" smooth="yes"/>
      <point x="764.14" y="1500.0"/>
      <point x="974.7" y="1309.56"/>
      <point x="974.7" y="1133.8" type="qcurve" smooth="yes"/>
      <point x="974.7" y="945.3"/>
      <point x="770.3199999999999" y="723.9"/>
      <point x="595.4000000000001" y="723.9" type="qcurve" smooth="yes"/>
      <point x="543.7" y="723.9"/>
      <point x="326.3" y="724.9"/>
      <point x="277.48" y="727.74" type="qcurve"/>
      <point x="277.48" y="745.12" type="line"/>
      <point x="572.9" y="745.12" type="line" smooth="yes"/>
      <point x="766.22" y="745.12"/>
      <point x="910.26" y="951.8"/>
      <point x="910.26" y="1130.8" type="qcurve" smooth="yes"/>
      <point x="910.26" y="1302.54"/>
      <point x="740.02" y="1478.08"/>
      <point x="565.6800000000001" y="1478.08" type="qcurve" smooth="yes"/>
      <point x="324.86" y="1478.08" type="line"/>
      <point x="300.24" y="1452.62" type="line"/>
      <point x="297.78" y="756.4" type="line"/>
      <point x="299.78" y="49.76" type="line"/>
      <point x="498.32" y="15.84" type="line"/>
      <point x="498.32" y="0.0" type="line"/>
    </contour>
    <contour>
      <point x="655.9200000000001" y="739.82" type="line"/>
      <point x="713.44" y="751.06" type="line"/>
      <point x="940.9200000000001" y="224.0" type="line" smooth="yes"/>
      <point x="997.88" y="94.0"/>
      <point x="1060.4" y="30.46"/>
      <point x="1172.02" y="18.46" type="qcurve"/>
      <point x="1172.02" y="-0.54" type="line"/>
      <point x="987.4000000000001" y="-0.54" type="line"/>
      <point x="970.56" y="17.4" type="line"/>
    </contour>
  </outline>
</glyph>
<glyph name="S" format="2">
  <advance width="1024"/>
  <unicode hex="0053"/>
  <outline>
    <contour>
      <point x="71.92" y="0.54" type="line"/>
      <point x="71.92" y="441.0" type="line"/>
      <point x="88.44" y="441.0" type="line"/>
      <point x="131.22" y="262.74" type="line" smooth="yes"/>
      <point x="163.5" y="134.04"/>
      <point x="406.32" y="-8.16"/>
      <point x="564.06" y="-8.16" type="qcurve" smooth="yes"/>
      <point x="731.48" y="-8.16"/>
      <point x="928.94" y="187.1"/>
      <point x="928.94" y="326.7" type="qcurve" smooth="yes"/>
      <point x="928.94" y="455.24"/>
      <point x="786.24" y="634.98"/>
      <point x="499.18" y="752.06" type="qcurve" smooth="yes"/>
      <point x="219.52" y="869.78"/>
      <point x="97.94" y="1063.96"/>
      <point x="97.94" y="1195.78" type="qcurve" smooth="yes"/>
      <point x="97.94" y="1332.78"/>
      <point x="301.32" y="1514.3"/>
      <point x="475.52" y="1514.3" type="qcurve" smooth="yes"/>
      <point x="625.6600000000001" y="1514.3"/>
      <point x="803.88" y="1418.18"/>
      <point x="845.6" y="1347.96" type="qcurve"/>
      <point x="880.96" y="1497.16" type="line"/>
      <point x="893.6400000000001" y="1497.16" type="line"/>
      <point x="893.6400000000001" y="1088.6" type="line"/>
      <point x="878.58" y="1088.6" type="line"/>
      <point x="826.84" y="1286.06" type="line" smooth="yes"/>
      <point x="799.86" y="1387.5"/>
      <point x="610.9000000000001" y="1495.92"/>
      <point x="470.28" y="1495.92" type="qcurve" smooth="yes"/>
      <point x="314.3" y="1495.92"/>
      <point x="126.28" y="1326.62"/>
      <point x="126.28" y="1199.54" type="qcurve" smooth="yes"/>
      <point x="126.28" y="1083.4"/>
      <point x="263.04" y="933.84"/>
      <point x="539.36" y="818.84" type="qcurve" smooth="yes"/>
      <point x="822.64" y="698.28"/>
      <point x="969.2" y="500.3"/>
      <point x="969.2" y="349.26" type="qcurve" smooth="yes"/>
      <point x="969.2" y="181.26"/>
      <point x="739.56" y="-26.08"/>
      <point x="560.6800000000001" y="-26.08" type="qcurve" smooth="yes"/>
      <point x="395.42" y="-26.08"/>
      <point x="185.84" y="88.34"/>
      <point x="135.04" y="171.5" type="qcurve"/>
      <point x="84.68" y="0.54" type="line"/>
    </contour>
  </outline>
</glyph>
<glyph name="V" format="2">
  <advance width="1298"/>
  <unicode hex="0056"/>
  <outline>
    <contour>
      <point x="-24.32" y="1482.86" type="line"/>
      <point x="-24.32" y="1500.0" type="line"/>
      <point x="446.4" y="1500.0" type="line"/>
      <point x="446.4" y="1482.86" type="line"/>
      <point x="238.22" y="1455.32" type="line"/>
      <point x="451.3" y="787.1" type="line"/>
      <point x="689.12" y="45.52" type="line"/>
      <point x="917.88" y="809.7" type="line"/>
      <point x="1096.22" y="1451.1" type="line"/>
      <point x="876.28" y="1482.86" type="line"/>
      <point x="876.28" y="1500.0" type="line"/>
      <point x="1334.12" y="1500.0" type="line"/>
      <point x="1334.58" y="1482.86" type="line"/>
      <point x="1127.88" y="1450.72" type="line"/>
      <point x="940.56" y="804.86" type="line"/>
      <point x="700.04" y="-5.0" type="line"/>
      <point x="643.66" y="-5.0" type="line"/>
      <point x="397.38" y="769.2" type="line"/>
      <point x="176.24" y="1453.32" type="line"/>
    </contour>
  </outline>
</glyph>
<glyph name="X" format="2">
  <advance width="1261"/>
  <unicode hex="0058"/>
  <outline>
    <contour>
      <point x="-22.42" y="0.0" type="line"/>
      <point x="-22.42" y="16.38" type="line"/>
      <point x="213.64" y="47.5" type="line"/>
      <point x="628.88" y="791.36" type="line"/>
      <point x="635.34" y="791.36" type="line"/>
      <point x="990.1400000000001" y="1448.1" type="line"/>
      <point x="772.1800000000001" y="1483.24" type="line"/>
      <point x="772.1800000000001" y="1500.0" type="line"/>
      <point x="1241.28" y="1500.0" type="line"/>
      <point x="1241.28" y="1483.24" type="line"/>
      <point x="1016.8" y="1450.56" type="line"/>
      <point x="648.1" y="776.14" type="line"/>
      <point x="641.64" y="776.14" type="line"/>
      <point x="240.14" y="47.74" type="line"/>
      <point x="478.2" y="16.38" type="line"/>
      <point x="478.2" y="0.0" type="line"/>
    </contour>
    <contour>
      <point x="29.68" y="1483.24" type="line"/>
      <point x="29.68" y="1500.0" type="line"/>
      <point x="504.24" y="1500.0" type="line"/>
      <point x="504.24" y="1483.24" type="line"/>
      <point x="314.02" y="1447.16" type="line"/>
      <point x="655.02" y="816.54" type="line"/>
      <point x="1076.24" y="46.52" type="line"/>
      <point x="1283.44" y="16.38" type="line"/>
      <point x="1283.44" y="0.0" type="line"/>
      <point x="800.8" y="0.0" type="line"/>
      <point x="800.8" y="16.38" type="line"/>
      <point x="1002.8199999999999" y="46.52" type="line"/>
      <point x="621.5" y="753.96" type="line"/>
      <point x="247.2" y="1445.62" type="line"/>
    </contour>
  </outline>
</glyph>
<glyph name="Z" format="2">
  <advance width="1058"/>
  <unicode hex="005A"/>
  <outline>
    <contour>
      <point x="51.56" y="0.0" type="line"/>
      <point x="41.134" y="21.527" type="line"/>
      <point x="914.1800000000001" y="1474.32" type="line"/>
      <point x="907.72" y="1486.0" type="line"/>
      <point x="213.76" y="1486.0" type="line"/>
      <point x="127.26" y="1148.8" type="line"/>
      <point x="116.5" y="1148.8" type="line"/>
      <point x="116.5" y="1500.0" type="line"/>
      <point x="985.9000000000001" y="1500.0" type="line"/>
      <point x="985.9000000000001" y="1475.0" type="line"/>
      <point x="122.03999999999999" y="38.52" type="line"/>
      <point x="123.58" y="25.22" type="line"/>
      <point x="894.28" y="25.22" type="line"/>
      <point x="1005.86" y="403.6" type="line"/>
      <point x="1026.2596774193548" y="403.6" type="line"/>
      <point x="983.0396774193548" y="0.0" type="line"/>
    </contour>
  </outline>
</glyph>
<glyph name="backslash" format="2">
  <advance width="705"/>
  <unicode hex="005C"/>
  <outline>
    <contour>
      <point x="17.619999999999997" y="1535.58" type="line"/>
      <point x="-0.38000000000000256" y="1522.5" type="line"/>
      <point x="709.9634838709677" y="-165.977" type="line"/>
      <point x="730.1" y="-155.3" type="line"/>
    </contour>
  </outline>
</glyph>
<glyph name="bracketright" format="2">
  <advance width="548"/>
  <unicode hex="005D"/>
  <outline>
    <contour>
      <point x="21.7" y="-150.0" type="line"/>
      <point x="21.7" y="-136.0" type="line"/>
      <point x="381.1" y="-126.4" type="line"/>
      <point x="363.1" y="709.0" type="line"/>
      <point x="381.1" y="1475.4" type="line"/>
      <point x="21.7" y="1485.0" type="line"/>
      <point x="21.7" y="1500.0" type="line"/>
      <point x="410.4" y="1500.0" type="line"/>
      <point x="410.4" y="1497.0" type="line"/>
      <point x="408.4" y="1483.0" type="line"/>
      <point x="434.4" y="709.0" type="line"/>
      <point x="408.4" y="-133.0" type="line"/>
      <point x="412.4" y="-147.0" type="line"/>
      <point x="412.4" y="-150.0" type="line"/>
    </contour>
  </outline>
</glyph>
<glyph name="a" format="2">
  <advance width="900"/>
  <unicode hex="0061"/>
  <outline>
    <contour>
      <point x="75.72" y="217.2" type="qcurve" smooth="yes"/>
      <point x="75.72" y="353.48"/>
      <point x="382.56" y="533.26"/>
      <point x="737.78" y="592.38" type="qcurve"/>
      <point x="738.3199999999999" y="578.0" type="line"/>
      <point x="421.78" y="526.48"/>
      <point x="136.06" y="341.7"/>
      <point x="136.06" y="231.14" type="qcurve" smooth="yes"/>
      <point x="136.06" y="126.64"/>
      <point x="283.68" y="15.34"/>
      <point x="387.42" y="15.34" type="qcurve" smooth="yes"/>
      <point x="486.5" y="15.34"/>
      <point x="670.88" y="86.42"/>
      <point x="708.0" y="134.16" type="qcurve"/>
      <point x="709.08" y="655.56" type="line" smooth="yes"/>
      <point x="709.08" y="793.62"/>
      <point x="552.44" y="926.84"/>
      <point x="430.3" y="926.84" type="qcurve" smooth="yes"/>
      <point x="340.12" y="926.84"/>
      <point x="212.06" y="872.86"/>
      <point x="198.26" y="850.88" type="qcurve" smooth="yes"/>
      <point x="208.38" y="838.8"/>
      <point x="248.64" y="791.44"/>
      <point x="246.8" y="762.82" type="qcurve" smooth="yes"/>
      <point x="244.5" y="735.76"/>
      <point x="212.44" y="708.46"/>
      <point x="191.3" y="708.46" type="qcurve" smooth="yes"/>
      <point x="169.7" y="708.46"/>
      <point x="137.86" y="737.68"/>
      <point x="137.86" y="772.3" type="qcurve" smooth="yes"/>
      <point x="137.86" y="841.6"/>
      <point x="307.42" y="942.38"/>
      <point x="433.76" y="942.38" type="qcurve" smooth="yes"/>
      <point x="583.58" y="942.38"/>
      <point x="762.9000000000001" y="791.46"/>
      <point x="762.98" y="656.62" type="qcurve" smooth="yes"/>
      <point x="764.76" y="41.84" type="line"/>
      <point x="902.06" y="15.3" type="line"/>
      <point x="902.06" y="0.0" type="line"/>
      <point x="732.28" y="0.0" type="line"/>
      <point x="711.46" y="13.46" type="line"/>
      <point x="708.54" y="112.56" type="line"/>
      <point x="672.28" y="68.74"/>
      <point x="475.54" y="-9.36"/>
      <point x="371.98" y="-9.36" type="qcurve" smooth="yes"/>
      <point x="246.54000000000002" y="-9.36"/>
      <point x="75.72" y="100.92"/>
    </contour>
  </outline>
</glyph>
<glyph name="d" format="2">
  <advance width="1042"/>
  <unicode hex="0064"/>
  <outline>
    <contour>
      <point x="56.400000000000006" y="458.4" type="qcurve" smooth="yes"/>
      <point x="56.400000000000006" y="703.32"/>
      <point x="321.84000000000003" y="941.52"/>
      <point x="513.88" y="941.52" type="qcurve" smooth="yes"/>
      <point x="605.7" y="941.52"/>
      <point x="776.6800000000001" y="869.46"/>
      <point x="812.46" y="829.78" type="qcurve"/>
      <point x="812.06" y="1450.84" type="line"/>
      <point x="619.24" y="1483.0" type="line"/>
      <point x="619.24" y="1500.0" type="line"/>
      <point x="853.3" y="1503.0" type="line"/>
      <point x="865.36" y="1497.0" type="line"/>
      <point x="869.8199999999999" y="1471.08" type="line"/>
      <point x="866.9000000000001" y="526.0" type="line"/>
      <point x="868.28" y="41.84" type="line"/>
      <point x="1017.72" y="14.84" type="line"/>
      <point x="1017.72" y="0.0" type="line"/>
      <point x="815.76" y="0.0" type="line"/>
      <point x="809.6" y="10.46" type="line"/>
      <point x="808.22" y="98.26" type="line"/>
      <point x="774.44" y="66.9"/>
      <point x="594.5" y="-15.14"/>
      <point x="481.56" y="-15.14" type="qcurve" smooth="yes"/>
      <point x="299.14" y="-15.14"/>
      <point x="56.400000000000006" y="215.9"/>
    </contour>
    <contour>
      <point x="115.84" y="456.46" type="qcurve" smooth="yes"/>
      <point x="115.84" y="226.0"/>
      <point x="309.46000000000004" y="3.3999999999999995"/>
      <point x="483.42" y="3.3999999999999995" type="qcurve" smooth="yes"/>
      <point x="595.7" y="3.3999999999999995"/>
      <point x="770.5" y="78.96000000000001"/>
      <point x="807.76" y="115.7" type="qcurve"/>
      <point x="810.84" y="519.2" type="line"/>
      <point x="811.9200000000001" y="805.0" type="line"/>
      <point x="778.14" y="846.76"/>
      <point x="601.5" y="920.9"/>
      <point x="506.06" y="920.9" type="qcurve" smooth="yes"/>
      <point x="328.38" y="920.9"/>
      <point x="115.84" y="683.6"/>
    </contour>
  </outline>
</glyph>
<glyph name="f" format="2">
  <advance width="542"/>
  <unicode hex="0066"/>
  <outline>
    <contour>
      <point x="49.660000000000004" y="0.0" type="line"/>
      <point x="49.660000000000004" y="16.84" type="line"/>
      <point x="209.57999999999998" y="41.76" type="line"/>
      <point x="212.5" y="477.0" type="line"/>
      <point x="215.5" y="870.48" type="line"/>
      <point x="30.5" y="884.32" type="line"/>
      <point x="30.5" y="901.32" type="line"/>
      <point x="215.5" y="900.48" type="line"/>
      <point x="208.96" y="1170.2" type="line" smooth="yes"/>
      <point x="204.5" y="1351.6"/>
      <point x="328.46000000000004" y="1510.0"/>
      <point x="428.84000000000003" y="1510.0" type="qcurve" smooth="yes"/>
      <point x="470.96000000000004" y="1510.0"/>
      <point x="554.12" y="1481.78"/>
      <point x="570.94" y="1454.1" type="qcurve" smooth="yes"/>
      <point x="584.84" y="1441.96" type="line"/>
      <point x="567.38" y="1413.82" type="line"/>
      <point x="555.7" y="1424.66" type="line" smooth="yes"/>
      <point x="530.58" y="1447.1"/>
      <point x="454.52" y="1481.3"/>
      <point x="409.86" y="1481.3" type="qcurve" smooth="yes"/>
      <point x="339.0" y="1481.3"/>
      <point x="262.8" y="1375.26"/>
      <point x="262.72" y="1213.14" type="qcurve" smooth="yes"/>
      <point x="262.56" y="900.48" type="line"/>
      <point x="493.14" y="899.94" type="line"/>
      <point x="493.14" y="875.94" type="line"/>
      <point x="263.02" y="874.48" type="line"/>
      <point x="263.18" y="476.54" type="line"/>
      <point x="268.1" y="41.76" type="line"/>
      <point x="448.44" y="16.84" type="line"/>
      <point x="448.44" y="0.0" type="line"/>
    </contour>
  </outline>
</glyph>
<glyph name="g" format="2">
  <advance width="888"/>
  <unicode hex="0067"/>
  <outline>
    <contour>
      <point x="39.04" y="-229.68" type="qcurve" smooth="yes"/>
      <point x="39.04" y="-152.68"/>
      <point x="186.66" y="16.92"/>
      <point x="325.1" y="64.54" type="qcurve"/>
      <point x="347.68" y="57.46" type="line"/>
      <point x="197.56" y="0.7799999999999998"/>
      <point x="86.2" y="-150.68"/>
      <point x="86.2" y="-232.68" type="qcurve" smooth="yes"/>
      <point x="86.2" y="-332.78"/>
      <point x="299.86" y="-461.6"/>
      <point x="476.64" y="-461.6" type="qcurve" smooth="yes"/>
      <point x="672.02" y="-461.6"/>
      <point x="857.64" y="-307.32"/>
      <point x="857.64" y="-212.0" type="qcurve" smooth="yes"/>
      <point x="857.64" y="-128.24"/>
      <point x="697.26" y="-28.84"/>
      <point x="484.92" y="9.16" type="qcurve" smooth="yes"/>
      <point x="282.56" y="46.24"/>
      <point x="130.2" y="117.26"/>
      <point x="130.2" y="175.02" type="qcurve" smooth="yes"/>
      <point x="130.2" y="216.92"/>
      <point x="201.66" y="278.22"/>
      <point x="291.74" y="308.46" type="qcurve"/>
      <point x="306.34000000000003" y="298.08" type="line"/>
      <point x="233.24" y="271.62"/>
      <point x="180.46" y="219.92"/>
      <point x="180.46" y="186.4" type="qcurve" smooth="yes"/>
      <point x="180.46" y="148.72"/>
      <point x="298.96000000000004" y="107.86"/>
      <point x="503.46000000000004" y="66.78" type="qcurve" smooth="yes"/>
      <point x="710.96" y="25.16"/>
      <point x="893.26" y="-86.54"/>
      <point x="893.26" y="-197.68" type="qcurve" smooth="yes"/>
      <point x="893.26" y="-314.16"/>
      <point x="681.44" y="-482.0"/>
      <point x="475.96000000000004" y="-482.0" type="qcurve" smooth="yes"/>
      <point x="284.54" y="-482.0"/>
      <point x="39.04" y="-338.54"/>
    </contour>
    <contour>
      <point x="99.78" y="583.76" type="qcurve" smooth="yes"/>
      <point x="99.78" y="728.9"/>
      <point x="288.94" y="944.52"/>
      <point x="448.82" y="944.52" type="qcurve" smooth="yes"/>
      <point x="609.16" y="944.52"/>
      <point x="806.0" y="765.9"/>
      <point x="806.0" y="612.76" type="qcurve" smooth="yes"/>
      <point x="808.0" y="470.1"/>
      <point x="610.78" y="267.64"/>
      <point x="451.36" y="267.64" type="qcurve" smooth="yes"/>
      <point x="292.32" y="267.64"/>
      <point x="99.78" y="457.1"/>
    </contour>
    <contour>
      <point x="161.84" y="592.16" type="qcurve" smooth="yes"/>
      <point x="161.84" y="472.5"/>
      <point x="317.14" y="282.1"/>
      <point x="458.98" y="282.1" type="qcurve" smooth="yes"/>
      <point x="584.22" y="282.1"/>
      <point x="745.1" y="483.1"/>
      <point x="745.1" y="618.76" type="qcurve" smooth="yes"/>
      <point x="745.1" y="760.9"/>
      <point x="586.34" y="928.9"/>
      <point x="444.74" y="928.9" type="qcurve" smooth="yes"/>
      <point x="308.54" y="928.9"/>
      <point x="161.84" y="727.96"/>
    </contour>
    <contour>
      <point x="654.54" y="880.48" type="line"/>
      <point x="646.72" y="891.16" type="line"/>
      <point x="914.74" y="920.0" type="line"/>
      <point x="914.74" y="881.0" type="line"/>
    </contour>
  </outline>
</glyph>
<glyph name="l" format="2">
  <advance width="475"/>
  <unicode hex="006C"/>
  <outline>
    <contour>
      <point x="66.68" y="0.0" type="line"/>
      <point x="66.68" y="16.53" type="line"/>
      <point x="218.14" y="41.84" type="line"/>
      <point x="221.68" y="527.0" type="line"/>
      <point x="213.06" y="1449.92" type="line"/>
      <point x="57.519999999999996" y="1482.92" type="line"/>
      <point x="57.519999999999996" y="1500.0" type="line"/>
      <point x="260.74" y="1498.62" type="line"/>
      <point x="271.12" y="1491.7" type="line"/>
      <point x="275.28" y="1468.86" type="line"/>
      <point x="272.82" y="527.0" type="line"/>
      <point x="278.36" y="41.84" type="line"/>
      <point x="434.5" y="16.76" type="line"/>
      <point x="434.5" y="0.0" type="line"/>
    </contour>
  </outline>
</glyph>
<glyph name="m" format="2">
  <advance width="1620"/>
  <unicode hex="006D"/>
  <outline>
    <contour>
      <point x="70.03999999999999" y="0.0" type="line"/>
      <point x="70.03999999999999" y="13.84" type="line"/>
      <point x="210.42000000000002" y="41.84" type="line"/>
      <point x="212.04000000000002" y="462.52" type="line"/>
      <point x="207.42000000000002" y="868.54" type="line"/>
      <point x="51.44" y="894.0" type="line"/>
      <point x="51.44" y="909.92" type="line"/>
      <point x="250.48000000000002" y="923.0" type="line"/>
      <point x="263.48" y="922.0" type="line"/>
      <point x="261.64" y="731.82" type="line"/>
      <point x="309.76" y="815.22"/>
      <point x="481.52" y="939.3"/>
      <point x="604.52" y="939.3" type="qcurve" smooth="yes"/>
      <point x="715.04" y="939.3"/>
      <point x="844.58" y="836.22"/>
      <point x="853.64" y="735.74" type="qcurve"/>
      <point x="902.76" y="824.36"/>
      <point x="1071.2" y="939.3"/>
      <point x="1180.24" y="939.3" type="qcurve" smooth="yes"/>
      <point x="1311.44" y="939.3"/>
      <point x="1449.72" y="808.64"/>
      <point x="1449.72" y="685.72" type="qcurve" smooth="yes"/>
      <point x="1449.72" y="623.32"/>
      <point x="1448.6399999999999" y="534.74"/>
      <point x="1448.6399999999999" y="509.44" type="qcurve" smooth="yes"/>
      <point x="1449.72" y="41.84" type="line"/>
      <point x="1584.72" y="13.84" type="line"/>
      <point x="1584.72" y="0.0" type="line"/>
      <point x="1254.68" y="0.0" type="line"/>
      <point x="1254.68" y="13.84" type="line"/>
      <point x="1390.58" y="41.84" type="line"/>
      <point x="1395.96" y="485.44" type="line"/>
      <point x="1395.96" y="649.42" type="line" smooth="yes"/>
      <point x="1395.96" y="788.02"/>
      <point x="1289.48" y="905.3"/>
      <point x="1170.68" y="905.3" type="qcurve" smooth="yes"/>
      <point x="1067.52" y="905.3"/>
      <point x="906.7" y="795.94"/>
      <point x="856.48" y="711.0" type="qcurve"/>
      <point x="857.94" y="680.54"/>
      <point x="858.48" y="578.12"/>
      <point x="858.48" y="506.46" type="qcurve" smooth="yes"/>
      <point x="860.1" y="41.84" type="line"/>
      <point x="992.3199999999999" y="13.84" type="line"/>
      <point x="992.3199999999999" y="0.0" type="line"/>
      <point x="663.22" y="0.0" type="line"/>
      <point x="663.22" y="13.84" type="line"/>
      <point x="802.34" y="41.84" type="line"/>
      <point x="805.26" y="506.98" type="line"/>
      <point x="804.1800000000001" y="657.62" type="line" smooth="yes"/>
      <point x="803.64" y="781.42"/>
      <point x="707.06" y="904.22"/>
      <point x="583.98" y="904.22" type="qcurve" smooth="yes"/>
      <point x="484.65999999999997" y="904.22"/>
      <point x="310.62" y="789.02"/>
      <point x="261.64" y="710.76" type="qcurve"/>
      <point x="264.72" y="477.64" type="line"/>
      <point x="268.64" y="41.84" type="line"/>
      <point x="422.14" y="13.84" type="line"/>
      <point x="422.14" y="0.0" type="line"/>
    </contour>
  </outline>
</glyph>
<glyph name="o" format="2">
  <advance width="1011"/>
  <unicode hex="006F"/>
  <outline>
    <contour>
      <point x="56.400000000000006" y="460.0" type="qcurve" smooth="yes"/>
      <point x="56.400000000000006" y="693.4"/>
      <point x="327.66" y="944.52"/>
      <point x="505.34000000000003" y="944.52" type="qcurve" smooth="yes"/>
      <point x="687.48" y="944.52"/>
      <point x="954.4200000000001" y="699.62"/>
      <point x="954.4200000000001" y="466.0" type="qcurve" smooth="yes"/>
      <point x="954.4200000000001" y="225.6"/>
      <point x="681.1600000000001" y="-21.44"/>
      <point x="507.02" y="-21.44" type="qcurve" smooth="yes"/>
      <point x="333.88" y="-21.44"/>
      <point x="56.400000000000006" y="227.6"/>
    </contour>
    <contour>
      <point x="117.46000000000001" y="463.0" type="qcurve" smooth="yes"/>
      <point x="117.92" y="237.6"/>
      <point x="328.74" y="-6.98"/>
      <point x="504.72" y="-6.98" type="qcurve" smooth="yes"/>
      <point x="681.84" y="-6.98"/>
      <point x="894.8199999999999" y="232.6"/>
      <point x="894.8199999999999" y="461.0" type="qcurve" smooth="yes"/>
      <point x="894.8199999999999" y="689.4"/>
      <point x="683.7" y="926.06"/>
      <point x="506.1" y="928.06" type="qcurve" smooth="yes"/>
      <point x="327.06" y="930.06"/>
      <point x="117.46000000000001" y="688.4"/>
    </contour>
  </outline>
</glyph>
<glyph name="q" format="2">
  <advance width="1043"/>
  <unicode hex="0071"/>
  <outline>
    <contour>
      <point x="56.400000000000006" y="457.0" type="qcurve" smooth="yes"/>
      <point x="56.400000000000006" y="702.86"/>
      <point x="322.3" y="941.52"/>
      <point x="507.44" y="941.52" type="qcurve" smooth="yes"/>
      <point x="609.9200000000001" y="941.52"/>
      <point x="776.14" y="874.22"/>
      <point x="813.6800000000001" y="835.54" type="qcurve"/>
      <point x="834.62" y="925.84" type="line"/>
      <point x="1037.72" y="915.06" type="line"/>
      <point x="1037.72" y="900.9" type="line"/>
      <point x="867.9000000000001" y="884.46" type="line"/>
      <point x="867.9000000000001" y="444.94" type="line"/>
      <point x="869.28" y="-420.0" type="line"/>
      <point x="1023.46" y="-448.0" type="line"/>
      <point x="1023.46" y="-460.0" type="line"/>
      <point x="628.3" y="-460.0" type="line"/>
      <point x="628.3" y="-448.0" type="line"/>
      <point x="807.22" y="-420.0" type="line"/>
      <point x="809.22" y="112.6" type="line"/>
      <point x="777.2" y="75.18"/>
      <point x="601.4" y="-15.14"/>
      <point x="481.56" y="-15.14" type="qcurve" smooth="yes"/>
      <point x="299.14" y="-15.14"/>
      <point x="56.400000000000006" y="214.98"/>
    </contour>
    <contour>
      <point x="115.38" y="460.4" type="qcurve" smooth="yes"/>
      <point x="115.38" y="225.0"/>
      <point x="308.92" y="3.3999999999999995"/>
      <point x="483.88" y="3.3999999999999995" type="qcurve" smooth="yes"/>
      <point x="595.78" y="3.3999999999999995"/>
      <point x="771.4200000000001" y="87.32"/>
      <point x="808.3" y="136.96" type="qcurve"/>
      <point x="811.9200000000001" y="808.14" type="line"/>
      <point x="777.22" y="850.82"/>
      <point x="609.7" y="920.44"/>
      <point x="505.6" y="920.44" type="qcurve" smooth="yes"/>
      <point x="328.38" y="920.44"/>
      <point x="115.38" y="682.6"/>
    </contour>
  </outline>
</glyph>
<glyph name="u" format="2">
  <advance width="1156"/>
  <unicode hex="0075"/>
  <outline>
    <contour>
      <point x="44.96" y="896.08" type="line"/>
      <point x="44.96" y="909.92" type="line"/>
      <point x="234.34" y="923.0" type="line"/>
      <point x="256.0" y="922.46" type="line"/>
      <point x="256.0" y="893.16" type="line"/>
      <point x="256.7" y="496.8" type="line"/>
      <point x="257.78" y="314.72" type="line" smooth="yes"/>
      <point x="258.32" y="150.0"/>
      <point x="414.58000000000004" y="18.259999999999998"/>
      <point x="535.32" y="18.259999999999998" type="qcurve" smooth="yes"/>
      <point x="642.04" y="18.259999999999998"/>
      <point x="849.46" y="118.3"/>
      <point x="896.6600000000001" y="189.44" type="qcurve"/>
      <point x="898.5" y="464.38" type="line"/>
      <point x="896.04" y="875.62" type="line"/>
      <point x="738.62" y="896.54" type="line"/>
      <point x="738.62" y="909.92" type="line"/>
      <point x="923.54" y="923.0" type="line"/>
      <point x="939.98" y="917.0" type="line"/>
      <point x="951.8" y="890.0" type="line"/>
      <point x="949.34" y="464.38" type="line"/>
      <point x="952.72" y="41.84" type="line"/>
      <point x="1119.8600000000001" y="21.14" type="line"/>
      <point x="1119.8600000000001" y="9.38" type="line"/>
      <point x="917.86" y="-1.84" type="line"/>
      <point x="900.96" y="16.38" type="line"/>
      <point x="898.2" y="163.66" type="line"/>
      <point x="847.9200000000001" y="94.44"/>
      <point x="643.3" y="-10.22"/>
      <point x="516.56" y="-10.22" type="qcurve" smooth="yes"/>
      <point x="379.48" y="-10.22"/>
      <point x="203.48000000000002" y="135.94"/>
      <point x="203.48000000000002" y="268.4" type="qcurve" smooth="yes"/>
      <point x="203.48000000000002" y="347.92"/>
      <point x="205.48000000000002" y="456.2"/>
      <point x="205.48000000000002" y="486.0" type="qcurve" smooth="yes"/>
      <point x="201.4" y="869.0" type="line"/>
    </contour>
  </outline>
</glyph>
<glyph name="w" format="2">
  <advance width="1353"/>
  <unicode hex="0077"/>
  <outline>
    <contour>
      <point x="-26.9" y="905.0" type="line"/>
      <point x="-26.9" y="920.0" type="line"/>
      <point x="337.0" y="920.0" type="line"/>
      <point x="337.0" y="905.0" type="line"/>
      <point x="188.82" y="883.0" type="line"/>
      <point x="312.18" y="490.14" type="line"/>
      <point x="457.88" y="53.459999999999994" type="line"/>
      <point x="603.66" y="430.76" type="line"/>
      <point x="690.1600000000001" y="665.0" type="line"/>
      <point x="700.0" y="647.0" type="line"/>
      <point x="618.34" y="423.0" type="line"/>
      <point x="461.32000000000005" y="-5.0" type="line"/>
      <point x="413.6" y="-5.0" type="line"/>
      <point x="261.5" y="468.94" type="line"/>
      <point x="125.38" y="882.54" type="line"/>
    </contour>
    <contour>
      <point x="468.15999999999997" y="905.0" type="line"/>
      <point x="468.15999999999997" y="920.0" type="line"/>
      <point x="809.38" y="920.0" type="line"/>
      <point x="809.38" y="905.0" type="line"/>
      <point x="653.62" y="884.54" type="line"/>
      <point x="782.4000000000001" y="473.84" type="line"/>
      <point x="916.36" y="51.239999999999995" type="line"/>
      <point x="1084.74" y="507.94" type="line"/>
      <point x="1207.24" y="875.46" type="line"/>
      <point x="1031.8400000000001" y="905.0" type="line"/>
      <point x="1031.8400000000001" y="920.0" type="line"/>
      <point x="1389.98" y="920.0" type="line"/>
      <point x="1389.98" y="905.0" type="line"/>
      <point x="1228.38" y="875.54" type="line"/>
      <point x="1099.5" y="500.72" type="line"/>
      <point x="919.12" y="-5.0" type="line"/>
      <point x="876.0" y="-5.0" type="line"/>
      <point x="734.64" y="454.64" type="line"/>
      <point x="592.64" y="884.0" type="line"/>
    </contour>
  </outline>
</glyph>
<glyph name="bar" format="2">
  <advance width="449"/>
  <unicode hex="007C"/>
  <outline>
    <contour>
      <point x="242.46" y="-462.2" type="line"/>
      <point x="239.06" y="-29.200000000000003" type="line"/>
      <point x="235.38" y="278.8" type="line"/>
      <point x="238.46" y="858.8" type="line"/>
      <point x="241.52" y="1166.8" type="line"/>
      <point x="238.52" y="1577.8" type="line"/>
      <point x="203.76" y="1551.8" type="line"/>
      <point x="205.76" y="1188.8" type="line"/>
      <point x="210.36" y="880.8" type="line"/>
      <point x="209.44" y="300.8" type="line"/>
      <point x="204.76" y="-7.200000000000001" type="line"/>
      <point x="200.36" y="-488.2" type="line"/>
    </contour>
  </outline>
</glyph>
<glyph name="braceright" format="2">
  <advance width="570"/>
  <unicode hex="007D"/>
  <outline>
    <contour>
      <point x="30.2" y="-111.7" type="qcurve"/>
      <point x="30.2" y="-94.7" type="line"/>
      <point x="65.65" y="-97.71000000000001"/>
      <point x="146.32999999999998" y="-99.55000000000001"/>
      <point x="180.9" y="-99.55000000000001" type="qcurve" smooth="yes"/>
      <point x="306.09999999999997" y="-99.55000000000001"/>
      <point x="393.8" y="39.2"/>
      <point x="393.8" y="122.2" type="qcurve" smooth="yes"/>
      <point x="393.8" y="264.0"/>
      <point x="214.3" y="565.2"/>
      <point x="214.3" y="650.2" type="qcurve" smooth="yes"/>
      <point x="214.3" y="710.6"/>
      <point x="270.38" y="743.82"/>
      <point x="351.84" y="745.98" type="qcurve"/>
      <point x="287.62" y="761.36"/>
      <point x="212.3" y="820.2"/>
      <point x="212.3" y="905.2" type="qcurve" smooth="yes"/>
      <point x="212.3" y="971.2"/>
      <point x="300.26" y="1158.0"/>
      <point x="300.26" y="1270.8" type="qcurve" smooth="yes"/>
      <point x="300.26" y="1375.4"/>
      <point x="212.515" y="1486.793"/>
      <point x="102.721" y="1486.793" type="qcurve" smooth="yes"/>
      <point x="84.674" y="1486.793"/>
      <point x="42.407" y="1483.413"/>
      <point x="26.2" y="1481.08" type="qcurve"/>
      <point x="26.2" y="1498.62" type="line"/>
      <point x="46.56" y="1502.54"/>
      <point x="101.6" y="1510.0"/>
      <point x="123.98" y="1510.0" type="qcurve" smooth="yes"/>
      <point x="236.4" y="1510.0"/>
      <point x="355.96" y="1371.4"/>
      <point x="355.96" y="1266.4" type="qcurve" smooth="yes"/>
      <point x="355.96" y="1170.8"/>
      <point x="242.08" y="968.74"/>
      <point x="242.08" y="888.74" type="qcurve" smooth="yes"/>
      <point x="242.08" y="818.74"/>
      <point x="349.8" y="761.3"/>
      <point x="435.8" y="763.6" type="qcurve" smooth="yes"/>
      <point x="531.0" y="762.22" type="line"/>
      <point x="531.0" y="736.4" type="line"/>
      <point x="278.0" y="720.74" type="line"/>
      <point x="251.0" y="699.2" type="line"/>
      <point x="251.0" y="564.2"/>
      <point x="447.5" y="244.6"/>
      <point x="448.5" y="141.6" type="qcurve" smooth="yes"/>
      <point x="449.5" y="14.600000000000001"/>
      <point x="297.8" y="-125.0"/>
      <point x="190.46" y="-125.0" type="qcurve"/>
      <point x="164.6" y="-125.0"/>
      <point x="62.2" y="-119.7"/>
    </contour>
  </outline>
</glyph>
<glyph name="cent" format="2">
  <advance width="982"/>
  <unicode hex="00A2"/>
  <outline>
    <contour>
      <point x="126.64" y="500.7" type="qcurve" smooth="yes"/>
      <point x="126.64" y="716.88"/>
      <point x="384.22" y="964.86"/>
      <point x="531.4200000000001" y="964.86" type="qcurve" smooth="yes"/>
      <point x="663.26" y="964.86"/>
      <point x="793.84" y="910.92"/>
      <point x="825.4449999999999" y="879.232" type="qcurve"/>
      <point x="868.865" y="967.112" type="line"/>
      <point x="876.36" y="967.48" type="line"/>
      <point x="876.36" y="673.1" type="line"/>
      <point x="865.14" y="673.1" type="line"/>
      <point x="835.02" y="781.84" type="line" smooth="yes"/>
      <point x="808.22" y="868.28"/>
      <point x="657.8" y="950.7"/>
      <point x="532.5" y="950.7" type="qcurve" smooth="yes"/>
      <point x="398.96000000000004" y="950.7"/>
      <point x="186.78" y="733.18"/>
      <point x="187.24" y="499.42" type="qcurve" smooth="yes"/>
      <point x="187.24" y="281.82"/>
      <point x="372.18" y="59.8"/>
      <point x="537.3" y="59.8" type="qcurve" smooth="yes"/>
      <point x="668.26" y="59.8"/>
      <point x="850.1" y="179.12"/>
      <point x="889.14" y="263.78" type="qcurve"/>
      <point x="899.14" y="259.1" type="line"/>
      <point x="864.6" y="173.0"/>
      <point x="675.5" y="35.24"/>
      <point x="538.6800000000001" y="35.24" type="qcurve" smooth="yes"/>
      <point x="356.8" y="35.24"/>
      <point x="126.64" y="281.44"/>
    </contour>
    <contour>
      <point x="530.98" y="-163.0" type="line"/>
      <point x="530.98" y="48.480000000000004" type="line"/>
      <point x="530.98" y="48.480000000000004" type="line"/>
      <point x="530.98" y="498.0" type="line"/>
      <point x="542.98" y="498.0" type="line"/>
      <point x="542.98" y="48.480000000000004" type="line"/>
      <point x="542.98" y="48.480000000000004" type="line"/>
      <point x="542.98" y="-160.0" type="line"/>
    </contour>
    <contour>
      <point x="530.98" y="1153.8" type="line"/>
      <point x="542.98" y="1156.8" type="line"/>
      <point x="542.98" y="957.4" type="line"/>
      <point x="542.98" y="957.4" type="line"/>
      <point x="542.98" y="498.0" type="line"/>
      <point x="530.98" y="498.0" type="line"/>
      <point x="530.98" y="957.4" type="line"/>
      <point x="530.98" y="957.4" type="line"/>
    </contour>
  </outline>
</glyph>
<glyph name="currency" format="2">
  <advance width="1153"/>
  <unicode hex="00A4"/>
  <outline>
    <contour>
      <point x="174.56" y="760.0" type="qcurve" smooth="yes"/>
      <point x="174.56" y="922.74"/>
      <point x="388.96" y="1151.9"/>
      <point x="563.54" y="1151.9" type="qcurve" smooth="yes"/>
      <point x="738.58" y="1151.9"/>
      <point x="955.44" y="938.04"/>
      <point x="955.44" y="764.92" type="qcurve" smooth="yes"/>
      <point x="955.44" y="601.64"/>
      <point x="742.5" y="368.1"/>
      <point x="568.46" y="368.1" type="qcurve" smooth="yes"/>
      <point x="392.88" y="368.1"/>
      <point x="174.56" y="584.96"/>
    </contour>
    <contour>
      <point x="212.04" y="781.14" type="qcurve" smooth="yes"/>
      <point x="213.04" y="613.02"/>
      <point x="405.2" y="380.56"/>
      <point x="563.54" y="380.56" type="qcurve" smooth="yes"/>
      <point x="732.64" y="380.56"/>
      <point x="915.96" y="591.88"/>
      <point x="915.96" y="767.38" type="qcurve" smooth="yes"/>
      <point x="915.96" y="928.12"/>
      <point x="723.8" y="1137.44"/>
      <point x="565.0" y="1137.44" type="qcurve" smooth="yes"/>
      <point x="394.44" y="1137.44"/>
      <point x="211.58" y="932.04"/>
    </contour>
    <contour>
      <point x="289.8" y="1034.58" type="line"/>
      <point x="90.44" y="1233.48" type="line"/>
      <point x="100.28" y="1243.32" type="line"/>
      <point x="299.64" y="1044.42" type="line"/>
    </contour>
    <contour>
      <point x="849.2" y="1026.74" type="line"/>
      <point x="839.36" y="1036.04" type="line"/>
      <point x="1052.72" y="1243.32" type="line"/>
      <point x="1062.56" y="1233.48" type="line"/>
    </contour>
    <contour>
      <point x="302.1" y="483.42" type="line"/>
      <point x="311.94" y="473.58" type="line"/>
      <point x="100.28" y="257.68" type="line"/>
      <point x="90.44" y="267.52" type="line"/>
    </contour>
    <contour>
      <point x="843.28" y="488.34" type="line"/>
      <point x="1062.56" y="267.52" type="line"/>
      <point x="1052.72" y="257.68" type="line"/>
      <point x="833.44" y="478.5" type="line"/>
    </contour>
  </outline>
</glyph>
<glyph name="brokenbar" format="2">
  <advance width="509"/>
  <unicode hex="00A6"/>
  <outline>
    <contour>
      <point x="274.0" y="733.0" type="line"/>
      <point x="265.046" y="881.0" type="line"/>
      <point x="275.623" y="1189.0" type="line"/>
      <point x="292.2" y="1564.0" type="line"/>
      <point x="218.59300000000002" y="1547.0" type="line"/>
      <point x="233.423" y="1189.0" type="line"/>
      <point x="245.954" y="881.0" type="line"/>
      <point x="243.0" y="730.0" type="line"/>
    </contour>
    <contour>
      <point x="295.407" y="-475.0" type="line"/>
      <point x="268.0" y="-47.0" type="line"/>
      <point x="262.092" y="261.0" type="line"/>
      <point x="264.046" y="433.0" type="line"/>
      <point x="233.0" y="423.0" type="line"/>
      <point x="241.793" y="261.0" type="line"/>
      <point x="238.0" y="-47.0" type="line"/>
      <point x="215.846" y="-522.0" type="line"/>
    </contour>
  </outline>
</glyph>
<glyph name="section" format="2">
  <advance width="1075"/>
  <unicode hex="00A7"/>
  <outline>
    <contour>
      <point x="977.94" y="111.6" type="qcurve" smooth="yes"/>
      <point x="977.94" y="-60.4"/>
      <point x="723.6800000000001" y="-223.0"/>
      <point x="569.02" y="-223.0" type="qcurve" smooth="yes"/>
      <point x="417.15999999999997" y="-223.0"/>
      <point x="202.96" y="-113.32"/>
      <point x="166.74" y="-75.16" type="qcurve"/>
      <point x="119.08" y="-204.74" type="line"/>
      <point x="105.0" y="-204.74" type="line"/>
      <point x="105.0" y="226.26" type="line"/>
      <point x="113.69" y="226.26" type="line"/>
      <point x="139.85" y="81.66" type="line" smooth="yes"/>
      <point x="165.334" y="-51.8"/>
      <point x="412.82" y="-212.32"/>
      <point x="571.32" y="-212.32" type="qcurve" smooth="yes"/>
      <point x="704.64" y="-212.32"/>
      <point x="932.66" y="-62.0"/>
      <point x="932.66" y="95.0" type="qcurve" smooth="yes"/>
      <point x="932.66" y="215.68"/>
      <point x="714.7" y="371.94"/>
      <point x="502.52" y="456.98" type="qcurve" smooth="yes"/>
      <point x="331.46000000000004" y="526.98"/>
      <point x="118.12" y="673.18"/>
      <point x="118.12" y="806.0" type="qcurve" smooth="yes"/>
      <point x="118.12" y="890.0"/>
      <point x="216.92000000000002" y="1021.0"/>
      <point x="302.26" y="1065.46" type="qcurve"/>
      <point x="256.2" y="1088.78"/>
      <point x="172.7" y="1183.0"/>
      <point x="172.7" y="1263.6" type="qcurve" smooth="yes"/>
      <point x="172.7" y="1373.6"/>
      <point x="356.74" y="1512.0"/>
      <point x="504.86" y="1512.0" type="qcurve" smooth="yes"/>
      <point x="604.36" y="1512.0"/>
      <point x="757.14" y="1457.0"/>
      <point x="796.74" y="1423.76" type="qcurve"/>
      <point x="824.2139999999999" y="1488.046" type="line"/>
      <point x="832.88" y="1486.885" type="line"/>
      <point x="836.12" y="1184.0" type="line"/>
      <point x="827.2" y="1184.0" type="line"/>
      <point x="806.52" y="1297.0" type="line" smooth="yes"/>
      <point x="787.38" y="1403.22"/>
      <point x="609.16" y="1503.54"/>
      <point x="502.78" y="1503.54" type="qcurve" smooth="yes"/>
      <point x="379.96000000000004" y="1503.54"/>
      <point x="210.98000000000002" y="1382.08"/>
      <point x="210.98000000000002" y="1287.86" type="qcurve" smooth="yes"/>
      <point x="210.98000000000002" y="1193.96"/>
      <point x="369.9" y="1082.92"/>
      <point x="558.3" y="1015.16" type="qcurve" smooth="yes"/>
      <point x="743.96" y="947.62"/>
      <point x="934.26" y="829.6"/>
      <point x="934.26" y="722.0" type="qcurve" smooth="yes"/>
      <point x="934.26" y="618.0"/>
      <point x="768.8199999999999" y="475.32"/>
      <point x="651.28" y="453.86" type="qcurve"/>
      <point x="799.44" y="394.94"/>
      <point x="977.94" y="237.08"/>
    </contour>
    <contour>
      <point x="158.44" y="836.26" type="qcurve" smooth="yes"/>
      <point x="158.44" y="713.16"/>
      <point x="366.04" y="570.44"/>
      <point x="635.92" y="460.78" type="qcurve"/>
      <point x="725.9200000000001" y="470.32"/>
      <point x="883.86" y="592.24"/>
      <point x="883.86" y="697.6" type="qcurve" smooth="yes"/>
      <point x="883.86" y="795.82"/>
      <point x="727.8" y="903.54"/>
      <point x="519.62" y="978.66" type="qcurve" smooth="yes"/>
      <point x="442.18" y="1003.38"/>
      <point x="336.539" y="1049.943"/>
      <point x="311.479" y="1060.943" type="qcurve"/>
      <point x="255.059" y="1030.943"/>
      <point x="158.44" y="916.0"/>
    </contour>
  </outline>
</glyph>
<glyph name="dieresis" format="2">
  <advance width="896"/>
  <unicode hex="00A8"/>
  <outline>
    <contour>
      <point x="568.28" y="1169.24" type="qcurve" smooth="yes"/>
      <point x="568.28" y="1189.08"/>
      <point x="595.52" y="1215.32"/>
      <point x="614.28" y="1215.32" type="qcurve" smooth="yes"/>
      <point x="634.2" y="1215.32"/>
      <point x="661.9" y="1190.32"/>
      <point x="661.9" y="1169.24" type="qcurve" smooth="yes"/>
      <point x="661.9" y="1148.8600000000001"/>
      <point x="633.5" y="1121.62"/>
      <point x="614.28" y="1121.62" type="qcurve" smooth="yes"/>
      <point x="595.44" y="1121.62"/>
      <point x="568.28" y="1148.24"/>
    </contour>
    <contour>
      <point x="234.1" y="1169.24" type="qcurve" smooth="yes"/>
      <point x="234.1" y="1189.08"/>
      <point x="262.42" y="1215.32"/>
      <point x="281.72" y="1215.32" type="qcurve" smooth="yes"/>
      <point x="300.56" y="1215.32"/>
      <point x="327.72" y="1190.32"/>
      <point x="327.72" y="1169.24" type="qcurve" smooth="yes"/>
      <point x="327.72" y="1148.8600000000001"/>
      <point x="300.94" y="1121.62"/>
      <point x="281.72" y="1121.62" type="qcurve" smooth="yes"/>
      <point x="261.8" y="1121.62"/>
      <point x="234.1" y="1148.24"/>
    </contour>
  </outline>
</glyph>
<glyph name="logicalnot" format="2">
  <advance width="835"/>
  <unicode hex="00AC"/>
  <outline>
    <contour>
      <point x="126.6" y="783.0" type="line"/>
      <point x="709.6" y="783.0" type="line"/>
      <point x="709.6" y="504.0" type="line"/>
      <point x="685.6" y="504.0" type="line"/>
      <point x="685.6" y="768.84" type="line"/>
      <point x="126.6" y="768.84" type="line"/>
    </contour>
  </outline>
</glyph>
<glyph name="registered" format="2">
  <advance width="1466"/>
  <unicode hex="00AE"/>
  <outline>
    <contour>
      <point x="88.0" y="908.38" type="qcurve" smooth="yes"/>
      <point x="88.0" y="1162.86"/>
      <point x="441.06" y="1514.0"/>
      <point x="725.2" y="1514.0" type="qcurve" smooth="yes"/>
      <point x="1007.34" y="1514.0"/>
      <point x="1373.08" y="1180.84"/>
      <point x="1373.08" y="923.44" type="qcurve" smooth="yes"/>
      <point x="1373.08" y="640.76"/>
      <point x="1005.4200000000001" y="292.08"/>
      <point x="740.72" y="292.08" type="qcurve" smooth="yes"/>
      <point x="452.74" y="292.08"/>
      <point x="88.0" y="632.54"/>
    </contour>
    <contour>
      <point x="108.46" y="906.92" type="qcurve" smooth="yes"/>
      <point x="108.46" y="628.62"/>
      <point x="450.28" y="308.59999999999997"/>
      <point x="725.66" y="308.59999999999997" type="qcurve" smooth="yes"/>
      <point x="994.74" y="308.59999999999997"/>
      <point x="1353.08" y="620.86"/>
      <point x="1353.08" y="920.06" type="qcurve" smooth="yes"/>
      <point x="1353.08" y="1168.7"/>
      <point x="1016.54" y="1504.78"/>
      <point x="724.2" y="1504.78" type="qcurve" smooth="yes"/>
      <point x="479.94" y="1504.78"/>
      <point x="108.46" y="1162.4"/>
    </contour>
    <contour>
      <point x="496.36" y="618.94" type="line"/>
      <point x="496.36" y="627.16" type="line"/>
      <point x="585.1800000000001" y="638.8399999999999" type="line"/>
      <point x="587.1800000000001" y="932.66" type="line"/>
      <point x="584.72" y="1187.91" type="line"/>
      <point x="518.72" y="1203.43" type="line"/>
      <point x="520.1800000000001" y="1212.42" type="line"/>
      <point x="777.14" y="1212.42" type="line" smooth="yes"/>
      <point x="867.5" y="1212.42"/>
      <point x="955.4000000000001" y="1124.98"/>
      <point x="955.4000000000001" y="1059.44" type="qcurve" smooth="yes"/>
      <point x="955.4000000000001" y="980.76"/>
      <point x="855.36" y="883.41"/>
      <point x="782.98" y="883.41" type="qcurve" smooth="yes"/>
      <point x="753.86" y="883.41"/>
      <point x="623.7" y="884.3299999999999"/>
      <point x="609.1" y="884.3299999999999" type="qcurve"/>
      <point x="609.1" y="898.16" type="line"/>
      <point x="768.5" y="898.16" type="line" smooth="yes"/>
      <point x="837.96" y="898.16"/>
      <point x="905.96" y="986.761"/>
      <point x="905.96" y="1063.889" type="qcurve" smooth="yes"/>
      <point x="905.96" y="1117.611"/>
      <point x="848.64" y="1196.52"/>
      <point x="765.12" y="1198.59" type="qcurve" smooth="yes"/>
      <point x="641.14" y="1198.59" type="line"/>
      <point x="629.0" y="1188.324" type="line"/>
      <point x="629.0" y="932.66" type="line"/>
      <point x="631.0" y="638.8399999999999" type="line"/>
      <point x="734.4200000000001" y="626.7" type="line"/>
      <point x="734.4200000000001" y="618.94" type="line"/>
    </contour>
    <contour>
      <point x="795.78" y="890.4" type="line"/>
      <point x="837.84" y="893.3199999999999" type="line"/>
      <point x="966.54" y="689.86" type="line" smooth="yes"/>
      <point x="985.98" y="659.74"/>
      <point x="1035.54" y="633.0"/>
      <point x="1069.5" y="631.0799999999999" type="qcurve"/>
      <point x="1068.04" y="618.94" type="line"/>
      <point x="967.6600000000001" y="618.94" type="line"/>
      <point x="958.44" y="626.7" type="line"/>
    </contour>
  </outline>
</glyph>
<glyph name="plusminus" format="2">
  <advance width="925"/>
  <unicode hex="00B1"/>
  <outline>
    <contour>
      <point x="101.0" y="661.0" type="line"/>
      <point x="101.0" y="683.0" type="line"/>
      <point x="824.4" y="683.0" type="line"/>
      <point x="824.4" y="661.0" type="line"/>
    </contour>
    <contour>
      <point x="446.2" y="248.0" type="line"/>
      <point x="446.2" y="1098.0" type="line"/>
      <point x="478.2" y="1098.0" type="line"/>
      <point x="478.2" y="248.0" type="line"/>
    </contour>
    <contour>
      <point x="101.0" y="21.0" type="line"/>
      <point x="101.0" y="50.0" type="line"/>
      <point x="824.4" y="50.0" type="line"/>
      <point x="824.4" y="21.0" type="line"/>
    </contour>
  </outline>
</glyph>
<glyph name="acute" format="2">
  <advance width="896"/>
  <unicode hex="00B4"/>
  <outline>
    <contour>
      <point x="618.36" y="1184.8" type="qcurve" smooth="yes"/>
      <point x="618.36" y="1167.58"/>
      <point x="597.04" y="1142.1"/>
      <point x="579.04" y="1130.1" type="qcurve" smooth="yes"/>
      <point x="310.18" y="970.0" type="line"/>
      <point x="304.18" y="978.0" type="line"/>
      <point x="519.46" y="1169.94" type="line" smooth="yes"/>
      <point x="537.76" y="1186.4"/>
      <point x="569.46" y="1212.86"/>
      <point x="585.46" y="1212.86" type="qcurve" smooth="yes"/>
      <point x="600.46" y="1212.86"/>
      <point x="618.36" y="1197.1"/>
    </contour>
  </outline>
</glyph>
<glyph name="paragraph" format="2">
  <advance width="992"/>
  <unicode hex="00B6"/>
  <outline>
    <contour>
      <point x="957.76" y="11.46" type="line"/>
      <point x="957.76" y="0.0" type="line"/>
      <point x="210.56" y="0.0" type="line"/>
      <point x="210.56" y="12.84" type="line"/>
      <point x="731.075" y="27.45" type="line"/>
      <point x="731.12" y="1013.0" type="line"/>
      <point x="687.78" y="1009.46"/>
      <point x="447.8" y="1003.38"/>
      <point x="382.64" y="1003.38" type="qcurve" smooth="yes"/>
      <point x="231.68" y="1003.38"/>
      <point x="87.8" y="1128.6"/>
      <point x="87.8" y="1245.26" type="qcurve" smooth="yes"/>
      <point x="87.8" y="1367.68"/>
      <point x="247.98" y="1500.0"/>
      <point x="387.08" y="1500.0" type="qcurve" smooth="yes"/>
      <point x="927.76" y="1500.0" type="line"/>
      <point x="927.76" y="1490.84" type="line"/>
      <point x="772.96" y="1471.24" type="line"/>
      <point x="760.16" y="754.0" type="line"/>
      <point x="765.94" y="27.22" type="line"/>
    </contour>
    <contour>
      <point x="412.78" y="10.22" type="line"/>
      <point x="386.78" y="10.22" type="line"/>
      <point x="408.76" y="1027.72" type="line"/>
      <point x="426.44" y="1026.1" type="line"/>
    </contour>
  </outline>
</glyph>
<glyph name="periodcentered" format="2">
  <advance width="427"/>
  <unicode hex="00B7"/>
  <outline>
    <contour>
      <point x="161.4" y="697.88" type="qcurve" smooth="yes"/>
      <point x="161.4" y="717.02"/>
      <point x="189.92000000000002" y="746.0"/>
      <point x="212.52" y="746.0" type="qcurve" smooth="yes"/>
      <point x="235.66" y="746.0"/>
      <point x="265.18" y="717.02"/>
      <point x="265.18" y="697.88" type="qcurve" smooth="yes"/>
      <point x="265.18" y="675.2"/>
      <point x="235.66" y="646.22"/>
      <point x="212.52" y="646.22" type="qcurve" smooth="yes"/>
      <point x="189.92000000000002" y="646.22"/>
      <point x="161.4" y="675.2"/>
    </contour>
  </outline>
</glyph>
<glyph name="cedilla" format="2">
  <advance width="896"/>
  <unicode hex="00B8"/>
  <outline>
    <contour>
      <point x="476.02" y="12.0" type="line"/>
      <point x="409.0" y="-145.0" type="line"/>
      <point x="436.9" y="-127.0"/>
      <point x="506.3" y="-107.0"/>
      <point x="542.5" y="-107.0" type="qcurve" smooth="yes"/>
      <point x="616.44" y="-107.0"/>
      <point x="701.24" y="-169.98"/>
      <point x="701.24" y="-228.42" type="qcurve" smooth="yes"/>
      <point x="701.24" y="-303.4"/>
      <point x="578.74" y="-380.4"/>
      <point x="497.94" y="-380.4" type="qcurve" smooth="yes"/>
      <point x="438.82" y="-380.4"/>
      <point x="326.84" y="-341.4"/>
      <point x="303.4" y="-321.4" type="qcurve"/>
      <point x="307.48" y="-311.94" type="line"/>
      <point x="330.46" y="-330.94"/>
      <point x="425.14" y="-364.4"/>
      <point x="495.08" y="-364.4" type="qcurve" smooth="yes"/>
      <point x="560.56" y="-364.4"/>
      <point x="641.24" y="-288.4"/>
      <point x="641.24" y="-229.42" type="qcurve" smooth="yes"/>
      <point x="641.24" y="-177.14"/>
      <point x="577.68" y="-121.0"/>
      <point x="529.28" y="-121.0" type="qcurve" smooth="yes"/>
      <point x="492.62" y="-121.0"/>
      <point x="423.68" y="-147.0"/>
      <point x="409.0" y="-159.0" type="qcurve"/>
      <point x="395.3" y="-147.0" type="line"/>
      <point x="465.24" y="17.0" type="line"/>
    </contour>
  </outline>
</glyph>
<glyph name="questiondown" format="2">
  <advance width="802"/>
  <unicode hex="00BF"/>
  <outline>
    <contour>
      <point x="588.22" y="1230.68" type="qcurve" smooth="yes"/>
      <point x="588.22" y="1207.76"/>
      <point x="554.76" y="1172.92"/>
      <point x="528.84" y="1172.92" type="qcurve" smooth="yes"/>
      <point x="502.92" y="1172.92"/>
      <point x="469.92" y="1207.76"/>
      <point x="469.92" y="1230.68" type="qcurve" smooth="yes"/>
      <point x="469.92" y="1257.14"/>
      <point x="502.92" y="1291.98"/>
      <point x="528.84" y="1291.98" type="qcurve" smooth="yes"/>
      <point x="554.76" y="1291.98"/>
      <point x="588.22" y="1257.14"/>
    </contour>
    <contour>
      <point x="768.0" y="-12.699999999999996" type="qcurve" smooth="yes"/>
      <point x="768.0" y="-94.91999999999999"/>
      <point x="568.12" y="-246.86"/>
      <point x="421.1" y="-246.86" type="qcurve" smooth="yes"/>
      <point x="271.24" y="-246.86"/>
      <point x="54.48" y="-80.5"/>
      <point x="54.48" y="69.88" type="qcurve" smooth="yes"/>
      <point x="54.48" y="212.64"/>
      <point x="170.06" y="391.66"/>
      <point x="308.46" y="486.18" type="qcurve" smooth="yes"/>
      <point x="438.7" y="573.92"/>
      <point x="551.12" y="733.44"/>
      <point x="543.76" y="881.88" type="qcurve" smooth="yes"/>
      <point x="541.92" y="931.14" type="line"/>
      <point x="556.14" y="931.14" type="line"/>
      <point x="558.9" y="857.24" type="line" smooth="yes"/>
      <point x="565.72" y="693.42"/>
      <point x="452.36" y="516.4"/>
      <point x="332.56" y="432.92" type="qcurve" smooth="yes"/>
      <point x="216.06" y="350.82"/>
      <point x="107.36" y="187.72"/>
      <point x="107.36" y="67.32" type="qcurve" smooth="yes"/>
      <point x="107.36" y="-75.14"/>
      <point x="280.78" y="-233.02"/>
      <point x="426.42" y="-233.02" type="qcurve" smooth="yes"/>
      <point x="553.0" y="-233.02"/>
      <point x="729.3" y="-109.02"/>
      <point x="729.3" y="-56.12" type="qcurve" smooth="yes"/>
      <point x="722.86" y="-47.36"/>
      <point x="657.84" y="-8.059999999999995"/>
      <point x="656.3" y="17.700000000000003" type="qcurve" smooth="yes"/>
      <point x="654.76" y="41.38"/>
      <point x="682.44" y="71.76"/>
      <point x="708.12" y="71.76" type="qcurve" smooth="yes"/>
      <point x="735.48" y="71.76"/>
      <point x="768.0" y="26.68"/>
    </contour>
  </outline>
</glyph>
<glyph name="multiply" format="2">
  <advance width="835"/>
  <unicode hex="00D7"/>
  <outline>
    <contour>
      <point x="103.02" y="306.92" type="line"/>
      <point x="86.88" y="325.46" type="line"/>
      <point x="723.8" y="975.78" type="line"/>
      <point x="738.86" y="957.24" type="line"/>
    </contour>
    <contour>
      <point x="725.48" y="306.0" type="line"/>
      <point x="89.64" y="956.32" type="line"/>
      <point x="105.62" y="979.0" type="line"/>
      <point x="742.54" y="328.68" type="line"/>
    </contour>
  </outline>
</glyph>
<glyph name="Thorn" format="2">
  <advance width="1099"/>
  <unicode hex="00DE"/>
  <outline>
    <contour>
      <point x="65.24000000000001" y="0.0" type="line"/>
      <point x="65.24000000000001" y="15.3" type="line"/>
      <point x="242.48000000000002" y="49.68" type="line"/>
      <point x="244.48000000000002" y="762.0" type="line"/>
      <point x="242.48000000000002" y="1447.24" type="line"/>
      <point x="64.24000000000001" y="1482.16" type="line"/>
      <point x="64.24000000000001" y="1500.0" type="line"/>
      <point x="480.70000000000005" y="1500.0" type="line"/>
      <point x="480.70000000000005" y="1482.62" type="line"/>
      <point x="300.08" y="1454.6" type="line"/>
      <point x="300.7" y="1299.54" type="line"/>
      <point x="601.9200000000001" y="1299.54" type="line" smooth="yes"/>
      <point x="791.24" y="1299.54"/>
      <point x="1020.88" y="1088.34"/>
      <point x="1020.88" y="889.12" type="qcurve" smooth="yes"/>
      <point x="1020.88" y="676.28"/>
      <point x="776.4" y="421.06"/>
      <point x="548.5" y="421.06" type="qcurve" smooth="yes"/>
      <point x="503.02" y="421.06"/>
      <point x="315.64" y="437.28"/>
      <point x="283.74" y="448.6" type="qcurve"/>
      <point x="286.12" y="470.52" type="line"/>
      <point x="326.94" y="454.06"/>
      <point x="519.48" y="440.14"/>
      <point x="557.6800000000001" y="440.14" type="qcurve" smooth="yes"/>
      <point x="760.88" y="440.14"/>
      <point x="955.52" y="663.58"/>
      <point x="955.52" y="889.48" type="qcurve" smooth="yes"/>
      <point x="955.52" y="1095.68"/>
      <point x="753.94" y="1271.98"/>
      <point x="582.06" y="1277.92" type="qcurve"/>
      <point x="299.16" y="1277.92" type="line"/>
      <point x="297.78" y="752.2" type="line"/>
      <point x="299.78" y="51.92" type="line"/>
      <point x="495.32" y="15.38" type="line"/>
      <point x="495.32" y="0.0" type="line"/>
    </contour>
  </outline>
</glyph>
<glyph name="Schwa" format="2">
  <advance width="1318"/>
  <unicode hex="018F"/>
  <outline>
    <contour>
      <point x="95.22" y="1288.62" type="line"/>
      <point x="139.68" y="1351.24"/>
      <point x="423.12" y="1515.3"/>
      <point x="645.76" y="1515.3" type="qcurve" smooth="yes"/>
      <point x="896.7" y="1515.3"/>
      <point x="1248.82" y="1107.9"/>
      <point x="1248.82" y="707.78" type="qcurve" smooth="yes"/>
      <point x="1248.82" y="347.12"/>
      <point x="915.8" y="-23.76"/>
      <point x="642.9" y="-23.22" type="qcurve" smooth="yes"/>
      <point x="368.06" y="-22.68"/>
      <point x="32.38" y="351.26"/>
      <point x="32.38" y="671.0" type="qcurve" smooth="yes"/>
      <point x="32.38" y="708.2" type="line"/>
      <point x="1202.54" y="708.2" type="line"/>
      <point x="1202.08" y="679.2" type="line"/>
      <point x="671.94" y="684.6" type="line"/>
      <point x="85.56" y="679.2" type="line"/>
      <point x="85.56" y="657.9" type="line" smooth="yes"/>
      <point x="85.56" y="373.96"/>
      <point x="387.65999999999997" y="-2.280000000000001"/>
      <point x="640.28" y="-2.280000000000001" type="qcurve" smooth="yes"/>
      <point x="897.6600000000001" y="-2.280000000000001"/>
      <point x="1187.92" y="325.14"/>
      <point x="1187.92" y="723.98" type="qcurve" smooth="yes"/>
      <point x="1187.92" y="1106.22"/>
      <point x="869.3199999999999" y="1495.3"/>
      <point x="640.6800000000001" y="1495.3" type="qcurve" smooth="yes"/>
      <point x="436.98" y="1495.3"/>
      <point x="153.64" y="1331.88"/>
      <point x="109.22" y="1273.1" type="qcurve"/>
    </contour>
  </outline>
</glyph>
<glyph name="florin" format="2">
  <advance width="544"/>
  <unicode hex="0192"/>
  <outline>
    <contour>
      <point x="278.08" y="36.06" type="line" smooth="yes"/>
      <point x="277.08" y="-76.78"/>
      <point x="165.54000000000002" y="-210.0"/>
      <point x="94.36" y="-210.0" type="qcurve" smooth="yes"/>
      <point x="60.38" y="-210.0"/>
      <point x="10.18" y="-197.3"/>
      <point x="-4.719999999999999" y="-186.3" type="qcurve" smooth="yes"/>
      <point x="-8.559999999999999" y="-183.3" type="line"/>
      <point x="-3.8599999999999994" y="-178.38" type="line"/>
      <point x="-0.3999999999999986" y="-181.46" type="line" smooth="yes"/>
      <point x="12.96" y="-191.38"/>
      <point x="56.54" y="-204.62"/>
      <point x="91.74000000000001" y="-204.62" type="qcurve" smooth="yes"/>
      <point x="136.66" y="-204.62"/>
      <point x="216.26" y="-116.06"/>
      <point x="217.26" y="-18.0" type="qcurve" smooth="yes"/>
      <point x="228.26" y="890.7" type="line"/>
      <point x="90.2" y="898.7" type="line"/>
      <point x="87.2" y="917.0" type="line"/>
      <point x="227.72" y="921.0" type="line"/>
      <point x="230.72" y="1237.0" type="line" smooth="yes"/>
      <point x="231.72" y="1360.0"/>
      <point x="332.72" y="1523.0"/>
      <point x="418.82" y="1523.0" type="qcurve" smooth="yes"/>
      <point x="444.42" y="1523.0"/>
      <point x="489.0" y="1508.68"/>
      <point x="513.3" y="1500.0" type="qcurve" smooth="yes"/>
      <point x="518.38" y="1496.92" type="line"/>
      <point x="507.20000000000005" y="1480.38" type="line"/>
      <point x="503.58000000000004" y="1483.0" type="line" smooth="yes"/>
      <point x="481.06" y="1496.92"/>
      <point x="436.8" y="1507.0"/>
      <point x="417.74" y="1507.0" type="qcurve" smooth="yes"/>
      <point x="365.1" y="1507.0"/>
      <point x="287.54" y="1422.0"/>
      <point x="287.54" y="1327.0" type="qcurve" smooth="yes"/>
      <point x="287.54" y="918.62" type="line"/>
      <point x="498.8" y="917.0" type="line"/>
      <point x="498.8" y="901.16" type="line"/>
      <point x="287.08" y="893.78" type="line"/>
    </contour>
  </outline>
</glyph>
<glyph name="schwa" format="2">
  <advance width="852"/>
  <unicode hex="0259"/>
  <outline>
    <contour>
      <point x="809.6800000000001" y="470.7" type="qcurve" smooth="yes"/>
      <point x="809.6800000000001" y="227.48"/>
      <point x="560.98" y="-21.44"/>
      <point x="408.0" y="-21.44" type="qcurve" smooth="yes"/>
      <point x="254.60000000000002" y="-21.44"/>
      <point x="41.68" y="208.16"/>
      <point x="36.94" y="391.62" type="qcurve"/>
      <point x="36.94" y="416.46" type="line"/>
      <point x="786.94" y="416.46" type="line"/>
      <point x="786.94" y="397.62" type="line"/>
      <point x="92.86" y="397.62" type="line"/>
      <point x="95.98" y="225.92"/>
      <point x="271.5" y="-6.5200000000000005"/>
      <point x="421.06" y="-6.5200000000000005" type="qcurve" smooth="yes"/>
      <point x="547.72" y="-6.5200000000000005"/>
      <point x="752.08" y="223.98"/>
      <point x="752.08" y="454.22" type="qcurve" smooth="yes"/>
      <point x="752.62" y="682.62"/>
      <point x="560.46" y="921.82"/>
      <point x="387.08000000000004" y="921.82" type="qcurve" smooth="yes"/>
      <point x="267.86" y="921.82"/>
      <point x="80.82" y="792.36"/>
      <point x="41.18" y="702.44" type="qcurve"/>
      <point x="30.340000000000003" y="709.04" type="line"/>
      <point x="70.98" y="808.36"/>
      <point x="268.36" y="944.06"/>
      <point x="398.5" y="944.06" type="qcurve" smooth="yes"/>
      <point x="578.08" y="944.06"/>
      <point x="809.6800000000001" y="695.62"/>
    </contour>
  </outline>
</glyph>
<glyph name="primemod" format="2">
  <advance width="386"/>
  <unicode hex="02B9"/>
  <outline>
    <contour>
      <point x="264.2" y="1502.0" type="line"/>
      <point x="280.82" y="1502.0" type="line"/>
      <point x="189.2" y="969.0" type="line"/>
      <point x="188.7" y="971.24" type="line"/>
    </contour>
  </outline>
</glyph>
<glyph name="apostrophemod" format="2">
  <advance width="363"/>
  <unicode hex="02BC"/>
  <outline>
    <contour>
      <point x="114.88" y="1215.38" type="line"/>
      <point x="159.18" y="1256.0"/>
      <point x="219.44" y="1376.46"/>
      <point x="228.2" y="1416.0" type="qcurve"/>
      <point x="193.2" y="1411.0"/>
      <point x="143.2" y="1441.0"/>
      <point x="143.2" y="1466.0" type="qcurve" smooth="yes"/>
      <point x="143.2" y="1489.0"/>
      <point x="174.2" y="1517.0"/>
      <point x="197.2" y="1517.0" type="qcurve" smooth="yes"/>
      <point x="222.2" y="1517.0"/>
      <point x="252.2" y="1484.0"/>
      <point x="252.2" y="1452.0" type="qcurve" smooth="yes"/>
      <point x="252.2" y="1410.0"/>
      <point x="178.18" y="1256.54"/>
      <point x="124.8" y="1205.0" type="qcurve"/>
    </contour>
  </outline>
</glyph>
<glyph name="breve" format="2">
  <advance width="896"/>
  <unicode hex="02D8"/>
  <outline>
    <contour>
      <point x="653.72" y="1190.0" type="qcurve"/>
      <point x="663.64" y="1187.0" type="line"/>
      <point x="639.8" y="1124.0"/>
      <point x="530.98" y="999.0"/>
      <point x="449.0" y="999.0" type="qcurve" smooth="yes"/>
      <point x="367.02" y="999.0"/>
      <point x="259.2" y="1117.0"/>
      <point x="232.36" y="1185.0" type="qcurve"/>
      <point x="242.28" y="1190.0" type="line"/>
      <point x="272.12" y="1118.0"/>
      <point x="376.94" y="1054.0"/>
      <point x="449.0" y="1057.0" type="qcurve" smooth="yes"/>
      <point x="521.52" y="1054.0"/>
      <point x="627.88" y="1121.0"/>
    </contour>
  </outline>
</glyph>
<glyph name="ring" format="2">
  <advance width="896"/>
  <unicode hex="02DA"/>
  <outline>
    <contour>
      <point x="277.6" y="1169.1" type="qcurve" smooth="yes"/>
      <point x="277.6" y="1232.54"/>
      <point x="376.44" y="1323.92"/>
      <point x="448.0" y="1323.92" type="qcurve" smooth="yes"/>
      <point x="524.96" y="1323.92"/>
      <point x="619.48" y="1230.38"/>
      <point x="619.48" y="1169.1" type="qcurve" smooth="yes"/>
      <point x="619.48" y="1107.82"/>
      <point x="519.56" y="1014.28"/>
      <point x="450.7" y="1014.28" type="qcurve" smooth="yes"/>
      <point x="376.44" y="1014.28"/>
      <point x="277.6" y="1105.66"/>
    </contour>
    <contour>
      <point x="316.58" y="1170.18" type="qcurve" smooth="yes"/>
      <point x="316.58" y="1113.68"/>
      <point x="386.66" y="1031.74"/>
      <point x="450.7" y="1031.74" type="qcurve" smooth="yes"/>
      <point x="511.5" y="1031.74"/>
      <point x="579.96" y="1109.76"/>
      <point x="579.96" y="1170.18" type="qcurve" smooth="yes"/>
      <point x="579.96" y="1226.14"/>
      <point x="509.8" y="1308.08"/>
      <point x="448.0" y="1308.08" type="qcurve" smooth="yes"/>
      <point x="386.2" y="1308.08"/>
      <point x="316.58" y="1230.06"/>
    </contour>
  </outline>
</glyph>
<glyph name="dblgravecomb" format="2">
  <advance width="896"/>
  <unicode hex="0311"/>
  <outline>
    <contour>
      <point x="183.7" y="1192.2" type="qcurve" smooth="yes"/>
      <point x="183.7" y="1208.82"/>
      <point x="202.62" y="1232.2"/>
      <point x="221.07999999999998" y="1232.2" type="qcurve" smooth="yes"/>
      <point x="238.45999999999998" y="1232.2"/>
      <point x="265.0" y="1206.96"/>
      <point x="282.38" y="1189.42" type="qcurve" smooth="yes"/>
      <point x="482.6" y="994.2" type="line"/>
      <point x="476.6" y="986.2" type="line"/>
      <point x="242.38" y="1137.6" type="line" smooth="yes"/>
      <point x="224.45999999999998" y="1149.06"/>
      <point x="183.7" y="1174.36"/>
    </contour>
    <contour>
      <point x="424.84" y="1198.68" type="qcurve" smooth="yes"/>
      <point x="424.84" y="1213.68"/>
      <point x="443.22" y="1235.44"/>
      <point x="462.22" y="1235.44" type="qcurve" smooth="yes"/>
      <point x="479.6" y="1235.44"/>
      <point x="505.06" y="1210.2"/>
      <point x="522.98" y="1191.58" type="qcurve" smooth="yes"/>
      <point x="723.2" y="994.2" type="line"/>
      <point x="717.2" y="986.2" type="line"/>
      <point x="485.14" y="1139.22" type="line" smooth="yes"/>
      <point x="466.68" y="1151.76"/>
      <point x="424.84" y="1178.68"/>
    </contour>
  </outline>
</glyph>
<glyph name="dieresisbelowcomb" format="2">
  <advance width="896"/>
  <unicode hex="0324"/>
  <outline>
    <contour>
      <point x="207.68" y="-148.08" type="qcurve" smooth="yes"/>
      <point x="207.68" y="-123.32"/>
      <point x="243.07999999999998" y="-91.54"/>
      <point x="267.22" y="-91.54" type="qcurve" smooth="yes"/>
      <point x="289.9" y="-91.54"/>
      <point x="321.68" y="-122.0"/>
      <point x="321.68" y="-148.08" type="qcurve" smooth="yes"/>
      <point x="321.68" y="-173.38"/>
      <point x="290.28" y="-205.7"/>
      <point x="267.22" y="-205.7" type="qcurve" smooth="yes"/>
      <point x="240.92" y="-205.7"/>
      <point x="207.68" y="-174.46"/>
    </contour>
    <contour>
      <point x="573.86" y="-148.08" type="qcurve" smooth="yes"/>
      <point x="573.86" y="-123.32"/>
      <point x="606.18" y="-91.54"/>
      <point x="628.78" y="-91.54" type="qcurve" smooth="yes"/>
      <point x="654.62" y="-91.54"/>
      <point x="687.86" y="-122.0"/>
      <point x="687.86" y="-148.08" type="qcurve" smooth="yes"/>
      <point x="687.86" y="-173.38"/>
      <point x="653.38" y="-205.7"/>
      <point x="628.78" y="-205.7" type="qcurve" smooth="yes"/>
      <point x="606.1" y="-205.7"/>
      <point x="573.86" y="-174.46"/>
    </contour>
  </outline>
</glyph>
<glyph name="commaaccentcomb" format="2">
  <advance width="896"/>
  <unicode hex="0326"/>
  <outline>
    <contour>
      <point x="366.4" y="-362.0" type="line"/>
      <point x="395.56" y="-340.54"/>
      <point x="461.4" y="-246.4"/>
      <point x="462.4" y="-195.4" type="qcurve"/>
      <point x="421.12" y="-204.4"/>
      <point x="371.34" y="-180.78"/>
      <point x="371.34" y="-152.78" type="qcurve" smooth="yes"/>
      <point x="371.34" y="-123.78"/>
      <point x="402.8" y="-99.4"/>
      <point x="425.8" y="-99.4" type="qcurve" smooth="yes"/>
      <point x="452.8" y="-99.4"/>
      <point x="493.4" y="-141.4"/>
      <point x="493.4" y="-184.4" type="qcurve" smooth="yes"/>
      <point x="493.4" y="-238.4"/>
      <point x="408.94" y="-347.08"/>
      <point x="371.4" y="-369.0" type="qcurve"/>
    </contour>
  </outline>
</glyph>
<glyph name="Germandbls" format="2">
  <advance width="1334"/>
  <unicode hex="1E9E"/>
  <outline>
    <contour>
      <point x="231.4" y="717.0" type="line"/>
      <point x="227.86" y="1043.4" type="line" smooth="yes"/>
      <point x="224.4" y="1297.32"/>
      <point x="432.66" y="1585.54"/>
      <point x="625.1800000000001" y="1585.54" type="qcurve" smooth="yes"/>
      <point x="712.6" y="1585.54"/>
      <point x="845.1800000000001" y="1571.54"/>
      <point x="897.44" y="1561.0" type="qcurve"/>
      <point x="896.36" y="1539.6" type="line"/>
      <point x="699.9" y="1518.64"/>
      <point x="554.14" y="1329.84"/>
      <point x="554.14" y="1208.74" type="qcurve" smooth="yes"/>
      <point x="554.14" y="1074.66"/>
      <point x="698.86" y="936.36"/>
      <point x="896.98" y="816.54" type="qcurve" smooth="yes"/>
      <point x="1107.24" y="690.26"/>
      <point x="1244.48" y="500.76"/>
      <point x="1244.48" y="352.02" type="qcurve" smooth="yes"/>
      <point x="1244.48" y="170.68"/>
      <point x="1014.38" y="-28.84"/>
      <point x="871.38" y="-28.84" type="qcurve" smooth="yes"/>
      <point x="738.78" y="-28.84"/>
      <point x="564.16" y="67.64"/>
      <point x="516.12" y="145.74" type="qcurve"/>
      <point x="469.44" y="1.0" type="line"/>
      <point x="459.9" y="1.0" type="line"/>
      <point x="459.9" y="432.72" type="line"/>
      <point x="471.36" y="432.72" type="line"/>
      <point x="510.0" y="239.28" type="line" smooth="yes"/>
      <point x="533.08" y="122.08"/>
      <point x="727.6" y="-9.54"/>
      <point x="861.4200000000001" y="-9.54" type="qcurve" smooth="yes"/>
      <point x="1010.44" y="-9.54"/>
      <point x="1216.64" y="175.14"/>
      <point x="1216.64" y="326.24" type="qcurve" smooth="yes"/>
      <point x="1216.64" y="457.08"/>
      <point x="1052.1399999999999" y="639.16"/>
      <point x="853.5799999999999" y="756.2" type="qcurve" smooth="yes"/>
      <point x="647.52" y="881.88"/>
      <point x="518.82" y="1067.64"/>
      <point x="518.82" y="1196.24" type="qcurve" smooth="yes"/>
      <point x="518.82" y="1329.56"/>
      <point x="681.46" y="1527.82"/>
      <point x="855.0" y="1553.84" type="qcurve"/>
      <point x="809.9" y="1558.76" type="line" smooth="yes"/>
      <point x="508.18" y="1592.44"/>
      <point x="291.7" y="1347.62"/>
      <point x="292.78" y="1098.76" type="qcurve" smooth="yes"/>
      <point x="294.4" y="717.0" type="line"/>
      <point x="297.4" y="-399.0" type="line"/>
      <point x="536.2" y="-447.0" type="line"/>
      <point x="536.2" y="-460.0" type="line"/>
      <point x="17.200000000000003" y="-460.0" type="line"/>
      <point x="17.200000000000003" y="-437.0" type="line"/>
      <point x="228.4" y="-404.0" type="line"/>
    </contour>
  </outline>
</glyph>
<glyph name="quoteleft" format="2">
  <advance width="363"/>
  <unicode hex="2018"/>
  <outline>
    <contour>
      <point x="260.8" y="1572.0" type="line"/>
      <point x="207.8" y="1523.0"/>
      <point x="142.1" y="1382.9"/>
      <point x="139.1" y="1350.52" type="qcurve"/>
      <point x="182.4" y="1360.98"/>
      <point x="231.62" y="1327.6"/>
      <point x="231.62" y="1301.22" type="qcurve" smooth="yes"/>
      <point x="231.62" y="1275.84"/>
      <point x="197.32" y="1239.0"/>
      <point x="171.94" y="1239.0" type="qcurve" smooth="yes"/>
      <point x="145.56" y="1239.0"/>
      <point x="103.8" y="1273.84"/>
      <point x="103.8" y="1312.68" type="qcurve" smooth="yes"/>
      <point x="103.8" y="1373.44"/>
      <point x="193.8" y="1527.0"/>
      <point x="252.8" y="1577.0" type="qcurve"/>
    </contour>
  </outline>
</glyph>
<glyph name="quoteright" format="2">
  <advance width="363"/>
  <unicode hex="2019"/>
  <outline>
    <contour>
      <point x="93.0" y="1233.2" type="line"/>
      <point x="146.0" y="1282.2"/>
      <point x="211.7" y="1422.3"/>
      <point x="214.7" y="1454.68" type="qcurve"/>
      <point x="171.4" y="1444.22"/>
      <point x="122.18" y="1477.6"/>
      <point x="122.18" y="1503.98" type="qcurve" smooth="yes"/>
      <point x="122.18" y="1529.36"/>
      <point x="158.78" y="1566.2"/>
      <point x="184.16" y="1566.2" type="qcurve" smooth="yes"/>
      <point x="210.54" y="1566.2"/>
      <point x="250.0" y="1531.36"/>
      <point x="250.0" y="1492.52" type="qcurve" smooth="yes"/>
      <point x="250.0" y="1431.76"/>
      <point x="160.0" y="1278.2"/>
      <point x="101.0" y="1228.2" type="qcurve"/>
    </contour>
  </outline>
</glyph>
<glyph name="quotesinglbase" format="2">
  <advance width="363"/>
  <unicode hex="201A"/>
  <outline>
    <contour>
      <point x="93.0" y="-207.6" type="line"/>
      <point x="146.0" y="-158.6"/>
      <point x="211.7" y="-18.5"/>
      <point x="214.7" y="13.88" type="qcurve"/>
      <point x="171.4" y="3.42"/>
      <point x="122.18" y="36.8"/>
      <point x="122.18" y="63.18" type="qcurve" smooth="yes"/>
      <point x="122.18" y="88.56"/>
      <point x="154.18" y="125.4"/>
      <point x="179.56" y="125.4" type="qcurve" smooth="yes"/>
      <point x="205.94" y="125.4"/>
      <point x="250.0" y="90.56"/>
      <point x="250.0" y="51.72" type="qcurve" smooth="yes"/>
      <point x="250.0" y="-9.04"/>
      <point x="160.0" y="-162.6"/>
      <point x="101.0" y="-212.6" type="qcurve"/>
    </contour>
  </outline>
</glyph>
<glyph name="dagger" format="2">
  <advance width="830"/>
  <unicode hex="2020"/>
  <outline>
    <contour>
      <point x="414.0" y="-480.0" type="line"/>
      <point x="398.0" y="-28.0" type="line"/>
      <point x="392.08" y="650.0" type="line"/>
      <point x="394.08" y="930.0" type="line"/>
      <point x="392.7" y="1468.0" type="line"/>
      <point x="393.7" y="1506.0" type="line"/>
      <point x="440.84000000000003" y="1506.0" type="line"/>
      <point x="443.84000000000003" y="1468.0" type="line"/>
      <point x="440.92" y="930.0" type="line"/>
      <point x="440.92" y="650.0" type="line"/>
      <point x="434.0" y="-28.0" type="line"/>
      <point x="425.0" y="-480.0" type="line"/>
    </contour>
    <contour>
      <point x="52.0" y="874.0" type="line"/>
      <point x="52.0" y="913.0" type="line"/>
      <point x="417.54" y="905.6" type="line"/>
      <point x="778.0" y="913.0" type="line"/>
      <point x="778.0" y="874.0" type="line"/>
      <point x="417.54" y="876.94" type="line"/>
    </contour>
  </outline>
</glyph>
<glyph name="bullet" format="2">
  <advance width="664"/>
  <unicode hex="2022"/>
  <outline>
    <contour>
      <point x="191.57999999999998" y="735.0" type="qcurve" smooth="yes"/>
      <point x="191.57999999999998" y="790.84"/>
      <point x="270.26" y="871.52"/>
      <point x="334.1" y="871.52" type="qcurve" smooth="yes"/>
      <point x="393.4" y="871.52"/>
      <point x="472.62" y="790.84"/>
      <point x="472.62" y="735.0" type="qcurve" smooth="yes"/>
      <point x="472.62" y="679.16"/>
      <point x="393.4" y="598.48"/>
      <point x="334.1" y="598.48" type="qcurve" smooth="yes"/>
      <point x="270.26" y="598.48"/>
      <point x="191.57999999999998" y="679.16"/>
    </contour>
  </outline>
</glyph>
<glyph name="perthousand" format="2">
  <advance width="2185"/>
  <unicode hex="2030"/>
  <outline>
    <contour>
      <point x="54.5" y="1108.4" type="qcurve"/>
      <point x="54.5" y="1287.68"/>
      <point x="232.96" y="1525.6"/>
      <point x="361.26" y="1525.6" type="qcurve" smooth="yes"/>
      <point x="500.02" y="1525.6"/>
      <point x="670.02" y="1291.76"/>
      <point x="670.02" y="1115.0" type="qcurve" smooth="yes"/>
      <point x="670.02" y="933.92"/>
      <point x="497.8" y="682.0"/>
      <point x="359.5" y="682.0" type="qcurve" smooth="yes"/>
      <point x="219.82" y="682.0"/>
      <point x="54.5" y="933.98"/>
    </contour>
    <contour>
      <point x="114.56" y="1110.56" type="qcurve" smooth="yes"/>
      <point x="116.02" y="939.54"/>
      <point x="233.68" y="690.84"/>
      <point x="361.26" y="690.84" type="qcurve" smooth="yes"/>
      <point x="484.24" y="690.84"/>
      <point x="609.88" y="938.42"/>
      <point x="609.88" y="1114.16" type="qcurve" smooth="yes"/>
      <point x="609.88" y="1293.68"/>
      <point x="487.08000000000004" y="1515.22"/>
      <point x="361.72" y="1515.22" type="qcurve" smooth="yes"/>
      <point x="239.12" y="1515.22"/>
      <point x="113.1" y="1281.04"/>
    </contour>
    <contour>
      <point x="304.14" y="-15.08" type="line"/>
      <point x="1151.38" y="1519.88" type="line"/>
      <point x="1163.76" y="1511.74" type="line"/>
      <point x="315.14" y="-22.84" type="line"/>
    </contour>
    <contour>
      <point x="825.34" y="418.88" type="qcurve" smooth="yes"/>
      <point x="825.34" y="595.78"/>
      <point x="1003.8" y="830.14"/>
      <point x="1132.1" y="830.14" type="qcurve" smooth="yes"/>
      <point x="1271.4" y="830.14"/>
      <point x="1440.8600000000001" y="604.46"/>
      <point x="1440.8600000000001" y="425.48" type="qcurve" smooth="yes"/>
      <point x="1440.8600000000001" y="230.84"/>
      <point x="1268.64" y="-13.46"/>
      <point x="1130.3400000000001" y="-13.46" type="qcurve" smooth="yes"/>
      <point x="991.2" y="-13.46"/>
      <point x="825.34" y="235.5"/>
    </contour>
    <contour>
      <point x="885.94" y="419.96" type="qcurve" smooth="yes"/>
      <point x="887.4000000000001" y="237.38"/>
      <point x="1005.6" y="-5.16"/>
      <point x="1132.1" y="-5.16" type="qcurve" smooth="yes"/>
      <point x="1255.62" y="-5.16"/>
      <point x="1380.72" y="234.88"/>
      <point x="1380.72" y="424.1" type="qcurve" smooth="yes"/>
      <point x="1380.72" y="607.38"/>
      <point x="1257.92" y="820.3"/>
      <point x="1132.56" y="820.3" type="qcurve" smooth="yes"/>
      <point x="1010.5" y="820.3"/>
      <point x="884.48" y="592.28"/>
    </contour>
    <contour>
      <point x="1515.2" y="418.88" type="qcurve" smooth="yes"/>
      <point x="1515.2" y="595.78"/>
      <point x="1693.66" y="830.14"/>
      <point x="1821.96" y="830.14" type="qcurve" smooth="yes"/>
      <point x="1961.26" y="830.14"/>
      <point x="2130.7200000000003" y="604.46"/>
      <point x="2130.7200000000003" y="425.48" type="qcurve" smooth="yes"/>
      <point x="2130.7200000000003" y="230.84"/>
      <point x="1958.5" y="-13.46"/>
      <point x="1820.2" y="-13.46" type="qcurve" smooth="yes"/>
      <point x="1681.06" y="-13.46"/>
      <point x="1515.2" y="235.5"/>
    </contour>
    <contour>
      <point x="1575.8000000000002" y="419.96" type="qcurve" smooth="yes"/>
      <point x="1577.26" y="237.38"/>
      <point x="1695.46" y="-5.16"/>
      <point x="1821.96" y="-5.16" type="qcurve" smooth="yes"/>
      <point x="1945.48" y="-5.16"/>
      <point x="2070.58" y="234.88"/>
      <point x="2070.58" y="424.1" type="qcurve" smooth="yes"/>
      <point x="2070.58" y="607.38"/>
      <point x="1947.7800000000002" y="820.3"/>
      <point x="1822.42" y="820.3" type="qcurve" smooth="yes"/>
      <point x="1700.3600000000001" y="820.3"/>
      <point x="1574.3400000000001" y="592.28"/>
    </contour>
  </outline>
</glyph>
<glyph name="minute" format="2">
  <advance width="364"/>
  <unicode hex="2032"/>
  <outline>
    <contour>
      <point x="73.58" y="1033.92" type="line"/>
      <point x="240.05967741935484" y="1393.5429032258064" type="line" smooth="yes"/>
      <point x="275.38" y="1469.36"/>
      <point x="313.6785483870968" y="1526.5151612903226"/>
      <point x="336.60806451612905" y="1514.0853225806452" type="qcurve" smooth="yes"/>
      <point x="359.07758064516133" y="1499.4456451612903"/>
      <point x="321.77612903225804" y="1439.609677419355"/>
      <point x="293.3116129032258" y="1383.2051612903226" type="qcurve" smooth="yes"/>
      <point x="89.97096774193548" y="1021.0" type="line"/>
    </contour>
  </outline>
</glyph>
<glyph name="guilsinglright" format="2">
  <advance width="692"/>
  <unicode hex="203A"/>
  <outline>
    <contour>
      <point x="613.9" y="582.62" type="line"/>
      <point x="542.64" y="531.98"/>
      <point x="120.36" y="184.48"/>
      <point x="110.54" y="178.72" type="qcurve" smooth="yes"/>
      <point x="98.34" y="172.04"/>
      <point x="92.42" y="191.18"/>
      <point x="103.7" y="198.32" type="qcurve" smooth="yes"/>
      <point x="153.14" y="232.82"/>
      <point x="554.56" y="579.96"/>
      <point x="570.4" y="592.8" type="qcurve"/>
      <point x="557.48" y="604.8"/>
      <point x="176.1" y="920.5"/>
      <point x="110.06" y="969.06" type="qcurve" smooth="yes"/>
      <point x="99.84" y="976.98"/>
      <point x="106.98" y="999.44"/>
      <point x="117.36" y="990.36" type="qcurve" smooth="yes"/>
      <point x="173.98000000000002" y="945.7"/>
      <point x="581.4200000000001" y="640.46"/>
      <point x="613.9" y="603.96" type="qcurve"/>
    </contour>
  </outline>
</glyph>
<glyph name="colonsign" format="2">
  <advance width="771"/>
  <unicode hex="20A1"/>
  <outline>
    <contour>
      <point x="61.96" y="764.0" type="qcurve" smooth="yes"/>
      <point x="61.96" y="1126.7"/>
      <point x="273.34000000000003" y="1518.0"/>
      <point x="432.52" y="1518.0" type="qcurve" smooth="yes"/>
      <point x="582.62" y="1518.0"/>
      <point x="730.34" y="1302.0"/>
      <point x="747.7" y="1093.0" type="qcurve"/>
      <point x="726.48" y="1088.0" type="line"/>
      <point x="707.12" y="1289.0"/>
      <point x="568.78" y="1494.0"/>
      <point x="429.36" y="1494.0" type="qcurve" smooth="yes"/>
      <point x="280.8" y="1494.0"/>
      <point x="122.02" y="1096.38"/>
      <point x="122.02" y="753.0" type="qcurve" smooth="yes"/>
      <point x="122.02" y="407.02"/>
      <point x="315.6" y="7.02"/>
      <point x="455.86" y="7.02" type="qcurve" smooth="yes"/>
      <point x="568.78" y="7.02"/>
      <point x="705.2" y="170.02"/>
      <point x="732.24" y="256.02" type="qcurve"/>
      <point x="747.7" y="244.02" type="line"/>
      <point x="721.2" y="153.02"/>
      <point x="584.08" y="-18.98"/>
      <point x="458.56" y="-18.98" type="qcurve" smooth="yes"/>
      <point x="307.2" y="-18.98"/>
      <point x="61.96" y="363.36"/>
    </contour>
    <contour>
      <point x="350.76" y="-132.8" type="line"/>
      <point x="376.58000000000004" y="15.2" type="line"/>
      <point x="376.12" y="15.2" type="line"/>
      <point x="509.6" y="796.2" type="line"/>
      <point x="526.28" y="778.2" type="line"/>
      <point x="396.18" y="9.2" type="line"/>
      <point x="396.18" y="9.2" type="line"/>
      <point x="375.28" y="-130.8" type="line"/>
    </contour>
    <contour>
      <point x="642.62" y="1583.2" type="line"/>
      <point x="664.6800000000001" y="1583.2" type="line"/>
      <point x="636.08" y="1423.86" type="line"/>
      <point x="636.08" y="1423.86" type="line"/>
      <point x="526.28" y="778.2" type="line"/>
      <point x="509.6" y="796.2" type="line"/>
      <point x="616.94" y="1439.86" type="line"/>
      <point x="616.94" y="1439.86" type="line"/>
    </contour>
    <contour>
      <point x="211.06" y="-79.0" type="line"/>
      <point x="249.34" y="119.9" type="line"/>
      <point x="249.34" y="119.9" type="line"/>
      <point x="361.14" y="780.0" type="line"/>
      <point x="378.36" y="762.0" type="line"/>
      <point x="267.48" y="101.9" type="line"/>
      <point x="267.48" y="101.9" type="line"/>
      <point x="235.57999999999998" y="-77.0" type="line"/>
    </contour>
    <contour>
      <point x="499.08000000000004" y="1606.0" type="line"/>
      <point x="522.6" y="1606.0" type="line"/>
      <point x="504.54" y="1499.0" type="line"/>
      <point x="504.54" y="1499.0" type="line"/>
      <point x="378.36" y="762.0" type="line"/>
      <point x="361.14" y="780.0" type="line"/>
      <point x="482.02" y="1502.0" type="line"/>
      <point x="482.02" y="1502.0" type="line"/>
    </contour>
  </outline>
</glyph>
<glyph name="franc" format="2">
  <advance width="813"/>
  <unicode hex="20A3"/>
  <outline>
    <contour>
      <point x="50.44" y="0.0" type="line"/>
      <point x="50.44" y="15.84" type="line"/>
      <point x="229.22" y="43.44" type="line"/>
      <point x="231.22" y="766.76" type="line"/>
      <point x="229.22" y="1452.64" type="line"/>
      <point x="50.44" y="1480.78" type="line"/>
      <point x="50.44" y="1500.0" type="line"/>
      <point x="756.6800000000001" y="1500.0" type="line"/>
      <point x="756.6800000000001" y="1138.4" type="line"/>
      <point x="741.9200000000001" y="1138.4" type="line"/>
      <point x="669.46" y="1479.62" type="line"/>
      <point x="302.96000000000004" y="1481.0" type="line"/>
      <point x="283.36" y="1447.4" type="line"/>
      <point x="284.9" y="815.0" type="line"/>
      <point x="286.9" y="47.9" type="line"/>
      <point x="473.56" y="15.84" type="line"/>
      <point x="473.56" y="0.0" type="line"/>
    </contour>
    <contour>
      <point x="268.4" y="775.54" type="line"/>
      <point x="268.4" y="797.68" type="line"/>
      <point x="603.66" y="797.38" type="line"/>
      <point x="656.56" y="963.6" type="line"/>
      <point x="670.64" y="963.6" type="line"/>
      <point x="670.64" y="591.6" type="line"/>
      <point x="656.56" y="591.6" type="line"/>
      <point x="603.66" y="771.62" type="line"/>
    </contour>
    <contour>
      <point x="30.0" y="411.8" type="line"/>
      <point x="31.4" y="438.4" type="line"/>
      <point x="575.8" y="438.4" type="line"/>
      <point x="574.2" y="411.8" type="line"/>
    </contour>
  </outline>
</glyph>
<glyph name="naira" format="2">
  <advance width="1048"/>
  <unicode hex="20A6"/>
  <outline>
    <contour>
      <point x="49.019999999999996" y="0.0" type="line"/>
      <point x="49.019999999999996" y="15.84" type="line"/>
      <point x="218.02" y="62.9" type="line"/>
      <point x="220.94" y="752.92" type="line"/>
      <point x="220.94" y="1443.56" type="line"/>
      <point x="39.86" y="1481.24" type="line"/>
      <point x="39.86" y="1500.0" type="line"/>
      <point x="270.7" y="1500.0" type="line"/>
      <point x="549.94" y="802.84" type="line"/>
      <point x="837.48" y="80.74" type="line"/>
      <point x="837.88" y="749.7" type="line"/>
      <point x="830.5" y="1434.64" type="line"/>
      <point x="653.74" y="1481.24" type="line"/>
      <point x="653.74" y="1500.0" type="line"/>
      <point x="1022.02" y="1500.0" type="line"/>
      <point x="1022.02" y="1481.24" type="line"/>
      <point x="858.3199999999999" y="1434.64" type="line"/>
      <point x="857.62" y="749.16" type="line"/>
      <point x="862.9200000000001" y="-0.7600000000000002" type="line"/>
      <point x="813.58" y="-0.7600000000000002" type="line"/>
      <point x="501.24" y="783.18" type="line"/>
      <point x="243.68" y="1418.9" type="line"/>
      <point x="240.68" y="752.38" type="line"/>
      <point x="244.84" y="62.9" type="line"/>
      <point x="419.0" y="15.84" type="line"/>
      <point x="419.0" y="0.0" type="line"/>
    </contour>
    <contour>
      <point x="974.72" y="644.7" type="line"/>
      <point x="846.56" y="644.7" type="line"/>
      <point x="846.56" y="644.7" type="line"/>
      <point x="584.9200000000001" y="644.7" type="line"/>
      <point x="574.24" y="664.0" type="line"/>
      <point x="846.56" y="664.0" type="line"/>
      <point x="846.56" y="664.0" type="line"/>
      <point x="974.72" y="664.0" type="line"/>
    </contour>
    <contour>
      <point x="48.6" y="644.7" type="line"/>
      <point x="35.0" y="665.0" type="line"/>
      <point x="228.24" y="665.0" type="line"/>
      <point x="228.24" y="664.0" type="line"/>
      <point x="574.24" y="664.0" type="line"/>
      <point x="584.9200000000001" y="644.7" type="line"/>
      <point x="228.24" y="644.7" type="line"/>
      <point x="228.24" y="644.7" type="line"/>
    </contour>
    <contour>
      <point x="989.3199999999999" y="993.7" type="line"/>
      <point x="846.56" y="993.7" type="line"/>
      <point x="846.56" y="992.7" type="line"/>
      <point x="447.22" y="992.7" type="line"/>
      <point x="437.54" y="1012.0" type="line"/>
      <point x="846.56" y="1012.0" type="line"/>
      <point x="846.56" y="1011.0" type="line"/>
      <point x="989.3199999999999" y="1011.0" type="line"/>
    </contour>
    <contour>
      <point x="48.6" y="993.7" type="line" smooth="yes"/>
      <point x="35.0" y="1013.0" type="line"/>
      <point x="233.07999999999998" y="1013.0" type="line"/>
      <point x="233.07999999999998" y="1012.0" type="line"/>
      <point x="437.54" y="1012.0" type="line"/>
      <point x="447.22" y="992.7" type="line"/>
      <point x="233.07999999999998" y="992.7" type="line"/>
      <point x="233.07999999999998" y="993.7" type="line"/>
    </contour>
  </outline>
</glyph>
<glyph name="dong" format="2">
  <advance width="996"/>
  <unicode hex="20AB"/>
  <outline>
    <contour>
      <point x="52.620000000000005" y="458.4" type="qcurve" smooth="yes"/>
      <point x="52.620000000000005" y="703.32"/>
      <point x="306.18" y="941.52"/>
      <point x="493.9" y="941.52" type="qcurve" smooth="yes"/>
      <point x="583.02" y="941.52"/>
      <point x="750.22" y="869.46"/>
      <point x="785.46" y="829.78" type="qcurve"/>
      <point x="785.06" y="1450.84" type="line"/>
      <point x="592.24" y="1483.0" type="line"/>
      <point x="592.24" y="1500.0" type="line"/>
      <point x="826.3" y="1503.0" type="line"/>
      <point x="838.36" y="1497.0" type="line"/>
      <point x="842.8199999999999" y="1471.08" type="line"/>
      <point x="839.9000000000001" y="526.0" type="line"/>
      <point x="841.28" y="41.84" type="line"/>
      <point x="979.9200000000001" y="14.84" type="line"/>
      <point x="979.9200000000001" y="0.0" type="line"/>
      <point x="788.76" y="0.0" type="line"/>
      <point x="782.6" y="10.46" type="line"/>
      <point x="781.76" y="98.26" type="line"/>
      <point x="748.52" y="66.9"/>
      <point x="572.36" y="-15.14"/>
      <point x="462.12" y="-15.14" type="qcurve" smooth="yes"/>
      <point x="284.56" y="-15.14"/>
      <point x="52.620000000000005" y="215.9"/>
    </contour>
    <contour>
      <point x="115.84" y="456.46" type="qcurve" smooth="yes"/>
      <point x="115.84" y="226.0"/>
      <point x="298.66" y="3.3999999999999995"/>
      <point x="466.14" y="3.3999999999999995" type="qcurve" smooth="yes"/>
      <point x="575.1800000000001" y="3.3999999999999995"/>
      <point x="745.12" y="78.96000000000001"/>
      <point x="781.3" y="115.7" type="qcurve"/>
      <point x="783.84" y="519.2" type="line"/>
      <point x="784.9200000000001" y="805.0" type="line"/>
      <point x="751.6800000000001" y="846.76"/>
      <point x="580.44" y="920.9"/>
      <point x="488.78" y="920.9" type="qcurve" smooth="yes"/>
      <point x="316.5" y="920.9"/>
      <point x="115.84" y="683.6"/>
    </contour>
    <contour>
      <point x="119.42" y="-146.4" type="line"/>
      <point x="119.42" y="-119.54" type="line"/>
      <point x="521.08" y="-119.54" type="line"/>
      <point x="936.4200000000001" y="-119.54" type="line"/>
      <point x="936.4200000000001" y="-146.4" type="line"/>
      <point x="521.16" y="-146.4" type="line"/>
    </contour>
    <contour>
      <point x="367.6" y="1235.62" type="line"/>
      <point x="368.6" y="1257.4" type="line"/>
      <point x="815.0" y="1257.4" type="line"/>
      <point x="967.0" y="1257.4" type="line"/>
      <point x="967.0" y="1235.62" type="line"/>
      <point x="814.0" y="1235.62" type="line"/>
    </contour>
  </outline>
</glyph>
<glyph name="euro" format="2">
  <advance width="908"/>
  <unicode hex="20AC"/>
  <outline>
    <contour>
      <point x="137.74" y="755.72" type="qcurve" smooth="yes"/>
      <point x="137.74" y="1114.74"/>
      <point x="378.04" y="1518.92"/>
      <point x="565.74" y="1518.92" type="qcurve" smooth="yes"/>
      <point x="672.6" y="1518.92"/>
      <point x="818.4200000000001" y="1362.26"/>
      <point x="853.26" y="1218.12" type="qcurve"/>
      <point x="834.94" y="1209.52" type="line"/>
      <point x="805.0" y="1345.66"/>
      <point x="661.98" y="1498.14"/>
      <point x="566.72" y="1498.14" type="qcurve" smooth="yes"/>
      <point x="381.82000000000005" y="1498.14"/>
      <point x="199.18" y="1098.22"/>
      <point x="198.72" y="763.58" type="qcurve" smooth="yes"/>
      <point x="198.26" y="403.34"/>
      <point x="400.06" y="-0.2200000000000002"/>
      <point x="576.2" y="-0.2200000000000002" type="qcurve" smooth="yes"/>
      <point x="673.94" y="-0.2200000000000002"/>
      <point x="824.1" y="127.24"/>
      <point x="867.24" y="205.42" type="qcurve"/>
      <point x="880.86" y="191.12" type="line"/>
      <point x="832.28" y="107.47999999999999"/>
      <point x="685.1" y="-23.0"/>
      <point x="581.6600000000001" y="-23.0" type="qcurve" smooth="yes"/>
      <point x="382.46000000000004" y="-23.0"/>
      <point x="137.74" y="373.02"/>
    </contour>
    <contour>
      <point x="36.400000000000006" y="850.16" type="line"/>
      <point x="48.400000000000006" y="873.4" type="line"/>
      <point x="736.8" y="873.4" type="line"/>
      <point x="747.4000000000001" y="850.16" type="line"/>
    </contour>
    <contour>
      <point x="42.400000000000006" y="636.16" type="line"/>
      <point x="37.400000000000006" y="659.4" type="line"/>
      <point x="742.2" y="659.4" type="line"/>
      <point x="731.6" y="636.16" type="line"/>
    </contour>
  </outline>
</glyph>
<glyph name="kip" format="2">
  <advance width="1082"/>
  <unicode hex="20AD"/>
  <outline>
    <contour>
      <point x="50.44" y="0.0" type="line"/>
      <point x="50.44" y="15.84" type="line"/>
      <point x="198.68" y="50.84" type="line"/>
      <point x="200.68" y="754.0" type="line"/>
      <point x="198.68" y="1447.24" type="line"/>
      <point x="50.44" y="1481.24" type="line"/>
      <point x="50.44" y="1500.0" type="line"/>
      <point x="419.1" y="1500.0" type="line"/>
      <point x="419.1" y="1481.24" type="line"/>
      <point x="258.36" y="1447.24" type="line"/>
      <point x="254.98000000000002" y="754.0" type="line"/>
      <point x="258.36" y="50.84" type="line"/>
      <point x="409.9" y="15.84" type="line"/>
      <point x="409.9" y="0.0" type="line"/>
    </contour>
    <contour>
      <point x="230.2" y="628.24" type="line"/>
      <point x="224.42000000000002" y="651.64" type="line"/>
      <point x="835.34" y="1441.92" type="line"/>
      <point x="682.62" y="1481.24" type="line"/>
      <point x="682.62" y="1500.0" type="line"/>
      <point x="1025.62" y="1500.0" type="line"/>
      <point x="1025.62" y="1481.24" type="line"/>
      <point x="863.62" y="1440.92" type="line"/>
      <point x="438.4" y="884.16" type="line"/>
      <point x="434.32000000000005" y="877.92" type="line"/>
    </contour>
    <contour>
      <point x="413.72" y="867.54" type="line"/>
      <point x="452.70000000000005" y="922.58" type="line"/>
      <point x="951.44" y="49.38" type="line"/>
      <point x="1098.68" y="15.84" type="line"/>
      <point x="1098.68" y="0.0" type="line"/>
      <point x="754.1800000000001" y="0.0" type="line"/>
      <point x="754.1800000000001" y="15.84" type="line"/>
      <point x="880.56" y="49.38" type="line"/>
    </contour>
    <contour>
      <point x="876.6" y="749.0" type="line"/>
      <point x="685.8" y="749.0" type="line"/>
      <point x="685.8" y="749.0" type="line"/>
      <point x="449.28000000000003" y="749.0" type="line"/>
      <point x="447.24" y="771.0" type="line"/>
      <point x="685.8" y="771.0" type="line"/>
      <point x="685.8" y="771.0" type="line"/>
      <point x="876.6" y="771.0" type="line"/>
    </contour>
    <contour>
      <point x="76.2" y="749.0" type="line"/>
      <point x="62.6" y="772.0" type="line"/>
      <point x="229.60000000000002" y="772.0" type="line"/>
      <point x="229.60000000000002" y="771.0" type="line"/>
      <point x="447.24" y="771.0" type="line"/>
      <point x="449.28000000000003" y="749.0" type="line"/>
      <point x="229.60000000000002" y="749.0" type="line"/>
      <point x="229.60000000000002" y="749.0" type="line"/>
    </contour>
  </outline>
</glyph>
<glyph name="cedi" format="2">
  <advance width="771"/>
  <unicode hex="20B5"/>
  <outline>
    <contour>
      <point x="61.96" y="764.0" type="qcurve" smooth="yes"/>
      <point x="61.96" y="1126.7"/>
      <point x="273.34000000000003" y="1518.0"/>
      <point x="432.52" y="1518.0" type="qcurve" smooth="yes"/>
      <point x="582.62" y="1518.0"/>
      <point x="730.34" y="1302.0"/>
      <point x="747.7" y="1093.0" type="qcurve"/>
      <point x="726.48" y="1088.0" type="line"/>
      <point x="707.12" y="1289.0"/>
      <point x="568.78" y="1494.0"/>
      <point x="429.36" y="1494.0" type="qcurve" smooth="yes"/>
      <point x="280.8" y="1494.0"/>
      <point x="122.02" y="1096.38"/>
      <point x="122.02" y="753.0" type="qcurve" smooth="yes"/>
      <point x="122.02" y="407.02"/>
      <point x="315.6" y="7.02"/>
      <point x="455.86" y="7.02" type="qcurve" smooth="yes"/>
      <point x="568.78" y="7.02"/>
      <point x="705.2" y="170.02"/>
      <point x="732.24" y="256.02" type="qcurve"/>
      <point x="747.7" y="244.02" type="line"/>
      <point x="721.2" y="153.02"/>
      <point x="584.08" y="-18.98"/>
      <point x="458.56" y="-18.98" type="qcurve" smooth="yes"/>
      <point x="307.2" y="-18.98"/>
      <point x="61.96" y="363.36"/>
    </contour>
    <contour>
      <point x="274.86" y="-79.0" type="line"/>
      <point x="303.38" y="59.86" type="line"/>
      <point x="303.38" y="59.86" type="line"/>
      <point x="424.94" y="780.0" type="line"/>
      <point x="442.15999999999997" y="762.0" type="line"/>
      <point x="321.52" y="41.86" type="line"/>
      <point x="321.52" y="41.86" type="line"/>
      <point x="299.38" y="-77.0" type="line"/>
    </contour>
    <contour>
      <point x="562.88" y="1606.0" type="line"/>
      <point x="586.4" y="1606.0" type="line"/>
      <point x="563.72" y="1471.26" type="line"/>
      <point x="563.72" y="1471.26" type="line"/>
      <point x="442.15999999999997" y="762.0" type="line"/>
      <point x="424.94" y="780.0" type="line"/>
      <point x="543.12" y="1482.02" type="line"/>
      <point x="543.12" y="1482.02" type="line"/>
    </contour>
  </outline>
</glyph>
<glyph name="liraTurkish" format="2">
  <advance width="953"/>
  <unicode hex="20BA"/>
  <outline>
    <contour>
      <point x="247.92000000000002" y="-28.0" type="line"/>
      <point x="234.92000000000002" y="-27.0" type="line"/>
      <point x="220.92000000000002" y="-10.0" type="line"/>
      <point x="220.92000000000002" y="754.0" type="line"/>
      <point x="218.92000000000002" y="1447.0" type="line"/>
      <point x="51.120000000000005" y="1483.0" type="line"/>
      <point x="51.120000000000005" y="1501.0" type="line"/>
      <point x="258.92" y="1501.0" type="line"/>
      <point x="450.62" y="1503.0" type="line"/>
      <point x="453.62" y="1484.0" type="line"/>
      <point x="281.82" y="1449.0" type="line"/>
      <point x="279.82" y="754.0" type="line"/>
      <point x="284.82" y="21.0" type="line"/>
      <point x="297.92" y="14.0" type="line"/>
      <point x="569.16" y="82.52"/>
      <point x="823.8" y="328.54"/>
      <point x="861.44" y="478.0" type="qcurve"/>
      <point x="894.44" y="646.0" type="line"/>
      <point x="913.44" y="646.0" type="line"/>
      <point x="910.44" y="410.0" type="line"/>
      <point x="834.78" y="275.38"/>
      <point x="579.36" y="65.14"/>
      <point x="317.52" y="-8.0" type="qcurve" smooth="yes"/>
    </contour>
    <contour>
      <point x="44.92" y="569.0" type="line"/>
      <point x="31.92" y="597.0" type="line"/>
      <point x="250.14" y="690.84" type="line"/>
      <point x="250.14" y="687.84" type="line"/>
      <point x="580.72" y="835.8" type="line"/>
      <point x="591.72" y="809.8" type="line"/>
      <point x="250.14" y="659.84" type="line"/>
      <point x="250.14" y="657.84" type="line"/>
    </contour>
    <contour>
      <point x="45.92" y="799.0" type="line"/>
      <point x="31.92" y="823.0" type="line"/>
      <point x="256.36" y="917.14" type="line"/>
      <point x="256.36" y="914.14" type="line"/>
      <point x="619.72" y="1074.8" type="line"/>
      <point x="630.72" y="1049.8" type="line"/>
      <point x="257.36" y="890.14" type="line"/>
      <point x="257.36" y="888.14" type="line"/>
    </contour>
  </outline>
</glyph>
<glyph name="numero" format="2">
  <advance width="1604"/>
  <unicode hex="2116"/>
  <outline>
    <contour>
      <point x="27.1" y="0.0" type="line"/>
      <point x="27.1" y="15.3" type="line"/>
      <point x="163.1" y="68.3" type="line"/>
      <point x="167.1" y="754.0" type="line"/>
      <point x="167.1" y="1438.7" type="line"/>
      <point x="20.1" y="1480.7" type="line"/>
      <point x="20.1" y="1500.0" type="line"/>
      <point x="222.0" y="1500.0" type="line"/>
      <point x="527.96" y="784.34" type="line"/>
      <point x="833.8" y="81.0" type="line"/>
      <point x="828.8" y="747.0" type="line"/>
      <point x="819.8" y="1428.7" type="line"/>
      <point x="652.8" y="1480.7" type="line"/>
      <point x="652.8" y="1500.0" type="line"/>
      <point x="997.24" y="1500.0" type="line"/>
      <point x="997.24" y="1480.7" type="line"/>
      <point x="849.24" y="1428.7" type="line"/>
      <point x="851.24" y="747.0" type="line"/>
      <point x="859.24" y="-4.0" type="line"/>
      <point x="808.8" y="-4.0" type="line"/>
      <point x="484.88" y="755.12" type="line"/>
      <point x="192.0" y="1427.0" type="line"/>
      <point x="190.0" y="754.0" type="line"/>
      <point x="192.0" y="68.3" type="line"/>
      <point x="326.4" y="15.3" type="line"/>
      <point x="326.4" y="0.0" type="line"/>
    </contour>
    <contour>
      <point x="1061.66" y="1152.0" type="qcurve" smooth="yes"/>
      <point x="1061.66" y="1291.2"/>
      <point x="1189.2" y="1520.2"/>
      <point x="1306.08" y="1520.2" type="qcurve" smooth="yes"/>
      <point x="1419.28" y="1520.2"/>
      <point x="1551.04" y="1294.2"/>
      <point x="1551.04" y="1155.0" type="qcurve" smooth="yes"/>
      <point x="1551.04" y="1001.8"/>
      <point x="1414.74" y="774.8"/>
      <point x="1302.62" y="774.8" type="qcurve" smooth="yes"/>
      <point x="1188.66" y="774.8"/>
      <point x="1061.66" y="1002.8"/>
    </contour>
    <contour>
      <point x="1120.2" y="1150.0" type="qcurve" smooth="yes"/>
      <point x="1120.2" y="978.8"/>
      <point x="1228.24" y="788.8"/>
      <point x="1304.62" y="788.8" type="qcurve" smooth="yes"/>
      <point x="1384.92" y="788.8"/>
      <point x="1492.96" y="967.8"/>
      <point x="1492.96" y="1146.0" type="qcurve" smooth="yes"/>
      <point x="1492.96" y="1316.2"/>
      <point x="1382.0" y="1505.2"/>
      <point x="1306.08" y="1505.2" type="qcurve" smooth="yes"/>
      <point x="1225.32" y="1505.2"/>
      <point x="1120.66" y="1311.2"/>
    </contour>
    <contour>
      <point x="1053.2" y="668.06" type="qcurve" smooth="yes"/>
      <point x="1053.2" y="669.06"/>
      <point x="1093.8600000000001" y="641.46"/>
      <point x="1307.46" y="641.46" type="qcurve" smooth="yes"/>
      <point x="1522.52" y="641.46"/>
      <point x="1558.26" y="669.06"/>
      <point x="1558.26" y="668.06" type="qcurve" smooth="yes"/>
      <point x="1558.26" y="670.52"/>
      <point x="1522.52" y="691.2"/>
      <point x="1307.46" y="691.2" type="qcurve" smooth="yes"/>
      <point x="1093.8600000000001" y="691.2"/>
      <point x="1053.2" y="670.52"/>
    </contour>
  </outline>
</glyph>
<glyph name="lessequal" format="2">
  <advance width="835"/>
  <unicode hex="2264"/>
  <outline>
    <contour>
      <point x="78.80000000000001" y="-4.600000000000001" type="line"/>
      <point x="78.80000000000001" y="44.599999999999994" type="line"/>
      <point x="764.4" y="44.599999999999994" type="line"/>
      <point x="764.4" y="-4.600000000000001" type="line"/>
    </contour>
    <contour>
      <point x="99.80000000000001" y="582.0" type="qcurve"/>
      <point x="131.57999999999998" y="619.02"/>
      <point x="611.24" y="939.28"/>
      <point x="659.06" y="973.74" type="qcurve" smooth="yes"/>
      <point x="691.0" y="997.84"/>
      <point x="697.44" y="962.96"/>
      <point x="673.6" y="946.18" type="qcurve" smooth="yes"/>
      <point x="538.56" y="848.58"/>
      <point x="198.18" y="610.86"/>
      <point x="172.8" y="588.0" type="qcurve"/>
      <point x="192.8" y="572.3"/>
      <point x="567.32" y="347.04"/>
      <point x="703.54" y="254.52" type="qcurve" smooth="yes"/>
      <point x="730.38" y="236.28"/>
      <point x="722.84" y="202.54"/>
      <point x="691.6" y="223.1" type="qcurve" smooth="yes"/>
      <point x="582.64" y="291.36"/>
      <point x="150.8" y="541.0"/>
    </contour>
  </outline>
</glyph>
<glyph name="f_f" format="2">
  <advance width="1150"/>
  <unicode hex="FB00"/>
  <outline>
    <contour>
      <point x="49.660000000000004" y="0.0" type="line"/>
      <point x="49.660000000000004" y="16.84" type="line"/>
      <point x="216.06" y="41.76" type="line"/>
      <point x="218.98000000000002" y="477.0" type="line"/>
      <point x="221.98000000000002" y="872.1" type="line"/>
      <point x="30.5" y="884.32" type="line"/>
      <point x="30.5" y="901.32" type="line"/>
      <point x="221.98000000000002" y="902.1" type="line"/>
      <point x="215.44" y="1105.66" type="line" smooth="yes"/>
      <point x="209.52" y="1287.06"/>
      <point x="339.26" y="1450.86"/>
      <point x="451.52" y="1450.86" type="qcurve" smooth="yes"/>
      <point x="508.22" y="1450.86"/>
      <point x="596.26" y="1408.16"/>
      <point x="628.1800000000001" y="1380.38" type="qcurve" smooth="yes"/>
      <point x="643.16" y="1367.7" type="line"/>
      <point x="625.7" y="1341.72" type="line"/>
      <point x="612.4" y="1353.1" type="line" smooth="yes"/>
      <point x="580.8" y="1379.86"/>
      <point x="488.54" y="1422.16"/>
      <point x="429.3" y="1422.16" type="qcurve" smooth="yes"/>
      <point x="353.04" y="1422.16"/>
      <point x="267.65999999999997" y="1310.72"/>
      <point x="268.12" y="1148.6" type="qcurve" smooth="yes"/>
      <point x="269.04" y="902.1" type="line"/>
      <point x="822.96" y="901.02" type="line"/>
      <point x="816.4200000000001" y="1170.66" type="line" smooth="yes"/>
      <point x="811.96" y="1352.06"/>
      <point x="935.9200000000001" y="1510.46"/>
      <point x="1036.3" y="1510.46" type="qcurve" smooth="yes"/>
      <point x="1078.42" y="1510.46"/>
      <point x="1158.82" y="1479.48"/>
      <point x="1178.4" y="1454.56" type="qcurve" smooth="yes"/>
      <point x="1192.3" y="1442.42" type="line"/>
      <point x="1174.8400000000001" y="1414.28" type="line"/>
      <point x="1163.16" y="1425.12" type="line" smooth="yes"/>
      <point x="1138.04" y="1447.56"/>
      <point x="1061.98" y="1481.76"/>
      <point x="1017.3199999999999" y="1481.76" type="qcurve" smooth="yes"/>
      <point x="946.46" y="1481.76"/>
      <point x="870.26" y="1375.72"/>
      <point x="870.1800000000001" y="1213.6" type="qcurve" smooth="yes"/>
      <point x="870.02" y="901.02" type="line"/>
      <point x="1100.6" y="899.94" type="line"/>
      <point x="1100.6" y="875.94" type="line"/>
      <point x="870.48" y="873.94" type="line"/>
      <point x="870.64" y="476.54" type="line"/>
      <point x="875.56" y="41.76" type="line"/>
      <point x="1055.9" y="16.84" type="line"/>
      <point x="1055.9" y="0.0" type="line"/>
      <point x="657.12" y="0.0" type="line"/>
      <point x="657.12" y="16.84" type="line"/>
      <point x="817.04" y="41.76" type="line"/>
      <point x="819.96" y="477.0" type="line"/>
      <point x="822.96" y="869.1" type="line"/>
      <point x="805.72" y="879.72" type="line"/>
      <point x="269.5" y="876.1" type="line"/>
      <point x="269.65999999999997" y="476.54" type="line"/>
      <point x="274.58" y="41.76" type="line"/>
      <point x="454.92" y="16.84" type="line"/>
      <point x="454.92" y="0.0" type="line"/>
    </contour>
  </outline>
</glyph>
<glyph name="fl" format="2">
  <advance width="1075"/>
  <unicode hex="FB02"/>
  <outline>
    <contour>
      <point x="49.660000000000004" y="0.0" type="line"/>
      <point x="49.660000000000004" y="16.84" type="line"/>
      <point x="214.98000000000002" y="41.76" type="line"/>
      <point x="217.9" y="477.0" type="line"/>
      <point x="220.44" y="870.48" type="line"/>
      <point x="35.900000000000006" y="884.32" type="line"/>
      <point x="35.900000000000006" y="901.32" type="line"/>
      <point x="219.98000000000002" y="901.02" type="line"/>
      <point x="213.9" y="1170.2" type="line" smooth="yes"/>
      <point x="209.9" y="1351.6"/>
      <point x="328.46000000000004" y="1510.0"/>
      <point x="445.58000000000004" y="1510.0" type="qcurve" smooth="yes"/>
      <point x="490.78" y="1510.0"/>
      <point x="611.6800000000001" y="1493.84"/>
      <point x="635.94" y="1492.38" type="qcurve" smooth="yes"/>
      <point x="657.74" y="1491.46" type="line"/>
      <point x="860.96" y="1498.62" type="line"/>
      <point x="871.34" y="1491.7" type="line"/>
      <point x="875.5" y="1468.86" type="line"/>
      <point x="873.04" y="527.0" type="line"/>
      <point x="878.5799999999999" y="41.84" type="line"/>
      <point x="1034.72" y="16.76" type="line"/>
      <point x="1034.72" y="0.0" type="line"/>
      <point x="666.9" y="0.0" type="line"/>
      <point x="666.9" y="16.76" type="line"/>
      <point x="818.36" y="41.84" type="line"/>
      <point x="821.9000000000001" y="527.0" type="line"/>
      <point x="813.28" y="1450.64" type="line"/>
      <point x="616.9200000000001" y="1466.84" type="line" smooth="yes"/>
      <point x="585.58" y="1469.22"/>
      <point x="478.28" y="1481.76"/>
      <point x="428.76" y="1481.76" type="qcurve" smooth="yes"/>
      <point x="339.0" y="1481.76"/>
      <point x="265.65999999999997" y="1375.26"/>
      <point x="266.12" y="1213.14" type="qcurve" smooth="yes"/>
      <point x="267.04" y="901.02" type="line"/>
      <point x="498.54" y="899.94" type="line"/>
      <point x="498.54" y="875.94" type="line"/>
      <point x="267.5" y="873.94" type="line"/>
      <point x="268.58" y="476.54" type="line"/>
      <point x="273.5" y="41.76" type="line"/>
      <point x="453.84000000000003" y="16.84" type="line"/>
      <point x="453.84000000000003" y="0.0" type="line"/>
    </contour>
  </outline>
</glyph>
<glyph name="f_f_i" format="2">
  <advance width="1673"/>
  <unicode hex="FB03"/>
  <outline>
    <contour>
      <point x="49.660000000000004" y="0.0" type="line"/>
      <point x="49.660000000000004" y="16.84" type="line"/>
      <point x="216.06" y="41.76" type="line"/>
      <point x="218.98000000000002" y="477.0" type="line"/>
      <point x="221.98000000000002" y="872.1" type="line"/>
      <point x="30.5" y="884.32" type="line"/>
      <point x="30.5" y="901.32" type="line"/>
      <point x="221.98000000000002" y="902.1" type="line"/>
      <point x="215.44" y="1105.66" type="line" smooth="yes"/>
      <point x="209.52" y="1287.06"/>
      <point x="339.26" y="1450.86"/>
      <point x="451.52" y="1450.86" type="qcurve" smooth="yes"/>
      <point x="508.22" y="1450.86"/>
      <point x="596.26" y="1408.16"/>
      <point x="628.1800000000001" y="1380.38" type="qcurve" smooth="yes"/>
      <point x="643.16" y="1367.7" type="line"/>
      <point x="625.7" y="1341.72" type="line"/>
      <point x="612.4" y="1353.1" type="line" smooth="yes"/>
      <point x="580.8" y="1379.86"/>
      <point x="488.54" y="1422.16"/>
      <point x="429.3" y="1422.16" type="qcurve" smooth="yes"/>
      <point x="353.04" y="1422.16"/>
      <point x="267.65999999999997" y="1310.72"/>
      <point x="268.12" y="1148.6" type="qcurve" smooth="yes"/>
      <point x="269.04" y="902.1" type="line"/>
      <point x="823.5799999999999" y="905.32" type="line"/>
      <point x="817.04" y="1169.74" type="line" smooth="yes"/>
      <point x="812.5799999999999" y="1351.14"/>
      <point x="940.86" y="1509.54"/>
      <point x="1053.12" y="1509.54" type="qcurve" smooth="yes"/>
      <point x="1109.82" y="1509.54"/>
      <point x="1197.8600000000001" y="1472.24"/>
      <point x="1229.78" y="1444.46" type="qcurve" smooth="yes"/>
      <point x="1244.76" y="1431.78" type="line"/>
      <point x="1227.3" y="1405.8" type="line"/>
      <point x="1214.0" y="1417.18" type="line" smooth="yes"/>
      <point x="1182.4" y="1443.94"/>
      <point x="1090.1399999999999" y="1480.84"/>
      <point x="1030.9" y="1480.84" type="qcurve" smooth="yes"/>
      <point x="954.64" y="1480.84"/>
      <point x="869.26" y="1374.8"/>
      <point x="869.72" y="1212.68" type="qcurve" smooth="yes"/>
      <point x="870.64" y="905.32" type="line"/>
      <point x="1451.4" y="919.08" type="line"/>
      <point x="1460.62" y="919.08" type="line"/>
      <point x="1479.02" y="888.86" type="line"/>
      <point x="1476.02" y="472.4" type="line"/>
      <point x="1482.02" y="41.84" type="line"/>
      <point x="1636.92" y="16.84" type="line"/>
      <point x="1636.92" y="0.0" type="line"/>
      <point x="1276.56" y="0.0" type="line"/>
      <point x="1276.56" y="16.84" type="line"/>
      <point x="1423.3400000000001" y="41.84" type="line"/>
      <point x="1425.8" y="472.4" type="line"/>
      <point x="1421.1" y="872.54" type="line"/>
      <point x="1402.1" y="887.84" type="line"/>
      <point x="871.1" y="879.32" type="line"/>
      <point x="871.26" y="476.54" type="line"/>
      <point x="876.1800000000001" y="41.76" type="line"/>
      <point x="1056.52" y="16.84" type="line"/>
      <point x="1056.52" y="0.0" type="line"/>
      <point x="651.26" y="0.0" type="line"/>
      <point x="651.26" y="16.84" type="line"/>
      <point x="817.6600000000001" y="41.76" type="line"/>
      <point x="820.5799999999999" y="477.0" type="line"/>
      <point x="823.5799999999999" y="876.24" type="line"/>
      <point x="269.5" y="876.1" type="line"/>
      <point x="269.65999999999997" y="476.54" type="line"/>
      <point x="274.58" y="41.76" type="line"/>
      <point x="454.92" y="16.84" type="line"/>
      <point x="454.92" y="0.0" type="line"/>
    </contour>
    <contour>
      <point x="1413.58" y="1235.52" type="qcurve" smooth="yes"/>
      <point x="1413.58" y="1256.28"/>
      <point x="1437.8" y="1283.5"/>
      <point x="1455.56" y="1283.5" type="qcurve" smooth="yes"/>
      <point x="1473.3200000000002" y="1283.5"/>
      <point x="1498.54" y="1258.28"/>
      <point x="1498.54" y="1235.52" type="qcurve" smooth="yes"/>
      <point x="1498.54" y="1214.76"/>
      <point x="1471.3200000000002" y="1187.0"/>
      <point x="1455.56" y="1187.0" type="qcurve" smooth="yes"/>
      <point x="1435.8" y="1187.0"/>
      <point x="1413.58" y="1212.22"/>
    </contour>
  </outline>
</glyph>
<glyph name="acutecomb.case" format="2">
  <advance width="896"/>
  <outline>
    <contour>
      <point x="594.88" y="1742.48" type="qcurve" smooth="yes"/>
      <point x="594.88" y="1721.48"/>
      <point x="578.88" y="1699.94"/>
      <point x="559.88" y="1690.48" type="qcurve" smooth="yes"/>
      <point x="324.8" y="1573.0" type="line"/>
      <point x="318.8" y="1581.0" type="line"/>
      <point x="487.88" y="1732.48" type="line" smooth="yes"/>
      <point x="508.88" y="1751.02"/>
      <point x="537.88" y="1776.48"/>
      <point x="553.88" y="1776.48" type="qcurve" smooth="yes"/>
      <point x="568.88" y="1776.48"/>
      <point x="594.88" y="1757.48"/>
    </contour>
  </outline>
</glyph>
<glyph name="breveinvertedcomb.case" format="2">
  <advance width="896"/>
  <outline>
    <contour>
      <point x="236.62" y="1558.68" type="qcurve"/>
      <point x="221.02" y="1563.06" type="line"/>
      <point x="243.24" y="1622.28"/>
      <point x="358.0" y="1730.0"/>
      <point x="447.0" y="1730.0" type="qcurve" smooth="yes"/>
      <point x="536.0" y="1730.0"/>
      <point x="650.84" y="1622.8"/>
      <point x="674.44" y="1562.36" type="qcurve"/>
      <point x="658.84" y="1555.98" type="line"/>
      <point x="634.86" y="1604.56"/>
      <point x="524.08" y="1666.48"/>
      <point x="447.0" y="1666.48" type="qcurve" smooth="yes"/>
      <point x="371.54" y="1666.48"/>
      <point x="257.14" y="1598.8"/>
    </contour>
  </outline>
</glyph>
<glyph name="caroncomb.case" format="2">
  <advance width="896"/>
  <outline>
    <contour>
      <point x="444.68" y="1563.3" type="qcurve" smooth="yes"/>
      <point x="422.68" y="1563.3"/>
      <point x="373.68" y="1604.7"/>
      <point x="331.68" y="1641.7" type="qcurve" smooth="yes"/>
      <point x="197.0" y="1767.04" type="line"/>
      <point x="211.22" y="1778.34" type="line"/>
      <point x="444.68" y="1623.54" type="line"/>
      <point x="682.46" y="1778.34" type="line"/>
      <point x="694.68" y="1768.04" type="line"/>
      <point x="557.68" y="1641.7" type="line" smooth="yes"/>
      <point x="508.3" y="1595.08"/>
      <point x="466.68" y="1563.3"/>
    </contour>
  </outline>
</glyph>
<glyph name="cedillacomb.case" format="2">
  <advance width="896"/>
  <outline>
    <contour>
      <point x="461.98" y="7.140000000000001" type="line"/>
      <point x="397.66" y="-113.68" type="line"/>
      <point x="423.94" y="-98.92"/>
      <point x="496.58" y="-77.3"/>
      <point x="540.34" y="-77.3" type="qcurve" smooth="yes"/>
      <point x="614.82" y="-77.3"/>
      <point x="709.34" y="-138.66"/>
      <point x="709.34" y="-198.18" type="qcurve" smooth="yes"/>
      <point x="709.34" y="-263.44"/>
      <point x="588.46" y="-331.8"/>
      <point x="506.58" y="-331.8" type="qcurve" smooth="yes"/>
      <point x="443.14" y="-331.8"/>
      <point x="319.82" y="-288.48"/>
      <point x="291.52" y="-265.24" type="qcurve"/>
      <point x="299.38" y="-252.54000000000002" type="line"/>
      <point x="323.98" y="-273.7"/>
      <point x="431.08" y="-315.8"/>
      <point x="499.4" y="-315.8" type="qcurve" smooth="yes"/>
      <point x="564.88" y="-315.8"/>
      <point x="645.02" y="-254.38"/>
      <point x="645.02" y="-201.88" type="qcurve" smooth="yes"/>
      <point x="645.02" y="-153.38"/>
      <point x="577.14" y="-98.32"/>
      <point x="519.56" y="-98.32" type="qcurve" smooth="yes"/>
      <point x="477.5" y="-98.32"/>
      <point x="409.64" y="-118.38"/>
      <point x="393.34" y="-130.38" type="qcurve"/>
      <point x="382.66" y="-122.7" type="line"/>
      <point x="451.52" y="9.440000000000001" type="line"/>
    </contour>
  </outline>
</glyph>
<glyph name="circumflexcomb.case" format="2">
  <advance width="896"/>
  <outline>
    <contour>
      <point x="447.0" y="1769.6" type="qcurve" smooth="yes"/>
      <point x="469.0" y="1769.6"/>
      <point x="518.46" y="1728.66"/>
      <point x="560.0" y="1691.2" type="qcurve" smooth="yes"/>
      <point x="694.68" y="1561.26" type="line"/>
      <point x="682.3" y="1552.72" type="line"/>
      <point x="447.0" y="1708.44" type="line"/>
      <point x="209.22" y="1550.88" type="line"/>
      <point x="197.0" y="1560.26" type="line"/>
      <point x="334.0" y="1691.2" type="line" smooth="yes"/>
      <point x="382.92" y="1738.74"/>
      <point x="425.0" y="1769.6"/>
    </contour>
  </outline>
</glyph>
<glyph name="dblgravecomb.case" format="2">
  <advance width="896"/>
  <outline>
    <contour>
      <point x="197.44" y="1737.68" type="qcurve" smooth="yes"/>
      <point x="197.44" y="1752.68"/>
      <point x="217.44" y="1777.68"/>
      <point x="236.44" y="1777.68" type="qcurve" smooth="yes"/>
      <point x="255.44" y="1777.68"/>
      <point x="281.98" y="1756.22"/>
      <point x="300.44" y="1738.68" type="qcurve" smooth="yes"/>
      <point x="493.4" y="1555.0" type="line"/>
      <point x="487.4" y="1547.0" type="line"/>
      <point x="260.44" y="1677.68" type="line" smooth="yes"/>
      <point x="241.44" y="1688.6"/>
      <point x="197.44" y="1717.68"/>
    </contour>
    <contour>
      <point x="438.04" y="1737.68" type="qcurve" smooth="yes"/>
      <point x="438.04" y="1752.68"/>
      <point x="458.04" y="1777.68"/>
      <point x="477.04" y="1777.68" type="qcurve" smooth="yes"/>
      <point x="496.04" y="1777.68"/>
      <point x="522.58" y="1756.22"/>
      <point x="541.04" y="1738.68" type="qcurve" smooth="yes"/>
      <point x="734.0" y="1555.0" type="line"/>
      <point x="728.0" y="1547.0" type="line"/>
      <point x="501.04" y="1677.68" type="line" smooth="yes"/>
      <point x="482.04" y="1688.6"/>
      <point x="438.04" y="1717.68"/>
    </contour>
  </outline>
</glyph>
<glyph name="diagonalbarO" format="2">
  <advance width="623"/>
  <outline>
    <contour>
      <point x="-90.74" y="-122.38" type="line"/>
      <point x="28.48" y="136.84" type="line"/>
      <point x="28.48" y="136.84" type="line"/>
      <point x="313.0" y="797.0" type="line"/>
      <point x="338.0" y="818.0" type="line"/>
      <point x="48.32" y="134.36" type="line"/>
      <point x="48.32" y="134.36" type="line"/>
      <point x="-53.74" y="-114.38" type="line"/>
    </contour>
    <contour>
      <point x="639.58" y="1593.7" type="line"/>
      <point x="670.58" y="1593.7" type="line"/>
      <point x="575.08" y="1392.66" type="line"/>
      <point x="576.08" y="1392.66" type="line"/>
      <point x="338.0" y="818.0" type="line"/>
      <point x="313.0" y="797.0" type="line"/>
      <point x="558.86" y="1398.92" type="line"/>
      <point x="558.86" y="1398.92" type="line"/>
    </contour>
  </outline>
</glyph>
<glyph name="diagonalbarl" format="2">
  <advance width="682"/>
  <outline>
    <contour>
      <point x="325.12" y="754.22" type="line"/>
      <point x="605.64" y="928.06" type="line"/>
      <point x="619.26" y="897.16" type="line"/>
      <point x="343.66" y="729.46" type="line"/>
      <point x="87.28" y="571.68" type="line"/>
      <point x="73.12" y="603.5" type="line"/>
    </contour>
  </outline>
</glyph>
<glyph name="dollar.rvrn2" format="2">
  <advance width="896"/>
  <outline>
    <contour>
      <point x="37.46" y="197.72" type="qcurve"/>
      <point x="54.22" y="209.88" type="line"/>
      <point x="95.74" y="142.62"/>
      <point x="295.52" y="27.62"/>
      <point x="466.36" y="27.62" type="qcurve" smooth="yes"/>
      <point x="636.9" y="27.62"/>
      <point x="805.38" y="225.48"/>
      <point x="805.38" y="370.08" type="qcurve" smooth="yes"/>
      <point x="805.38" y="514.16"/>
      <point x="625.14" y="673.86"/>
      <point x="437.28" y="762.14" type="qcurve" smooth="yes"/>
      <point x="225.1" y="865.6"/>
      <point x="82.94" y="1061.68"/>
      <point x="82.94" y="1191.44" type="qcurve" smooth="yes"/>
      <point x="82.94" y="1332.52"/>
      <point x="293.22" y="1504.2"/>
      <point x="438.54" y="1504.2" type="qcurve" smooth="yes"/>
      <point x="581.0" y="1504.2"/>
      <point x="753.12" y="1419.34"/>
      <point x="792.84" y="1377.02" type="qcurve"/>
      <point x="780.3" y="1363.88" type="line"/>
      <point x="740.8" y="1405.28"/>
      <point x="574.08" y="1482.5"/>
      <point x="436.92" y="1482.5" type="qcurve" smooth="yes"/>
      <point x="298.68" y="1482.5"/>
      <point x="116.28" y="1332.76"/>
      <point x="116.28" y="1195.44" type="qcurve" smooth="yes"/>
      <point x="116.28" y="1072.82"/>
      <point x="246.96" y="934.78"/>
      <point x="452.24" y="833.62" type="qcurve" smooth="yes"/>
      <point x="655.9200000000001" y="731.76"/>
      <point x="844.88" y="539.44"/>
      <point x="844.88" y="373.92" type="qcurve" smooth="yes"/>
      <point x="844.88" y="218.4"/>
      <point x="638.74" y="10.0"/>
      <point x="464.36" y="10.0" type="qcurve" smooth="yes"/>
      <point x="291.6" y="10.0"/>
      <point x="82.66" y="126.46000000000001"/>
    </contour>
    <contour>
      <point x="444.64" y="-125.4" type="line"/>
      <point x="444.64" y="17.0" type="line"/>
      <point x="445.18" y="17.0" type="line"/>
      <point x="445.18" y="788.92" type="line"/>
      <point x="457.86" y="789.08" type="line"/>
      <point x="457.86" y="17.0" type="line"/>
      <point x="458.4" y="17.0" type="line"/>
      <point x="458.4" y="-124.6" type="line"/>
    </contour>
    <contour>
      <point x="443.56" y="1626.78" type="line"/>
      <point x="455.56" y="1626.22" type="line"/>
      <point x="455.56" y="1496.2" type="line"/>
      <point x="455.56" y="1496.2" type="line"/>
      <point x="457.86" y="789.08" type="line"/>
      <point x="445.18" y="788.92" type="line"/>
      <point x="444.1" y="1496.2" type="line"/>
      <point x="443.56" y="1496.2" type="line"/>
    </contour>
  </outline>
</glyph>
<glyph name="gravecombstack.case" format="2">
  <advance width="1024"/>
  <outline>
    <contour>
      <point x="381.06" y="1707.42" type="qcurve" smooth="yes"/>
      <point x="377.6" y="1721.42"/>
      <point x="395.44" y="1745.34"/>
      <point x="410.44" y="1747.72" type="qcurve" smooth="yes"/>
      <point x="425.44" y="1750.1"/>
      <point x="459.36" y="1733.18"/>
      <point x="484.36" y="1720.1" type="qcurve" smooth="yes"/>
      <point x="671.46" y="1623.0" type="line"/>
      <point x="667.46" y="1614.0" type="line"/>
      <point x="425.36" y="1671.9" type="line" smooth="yes"/>
      <point x="404.36" y="1676.9"/>
      <point x="384.98" y="1689.66"/>
    </contour>
  </outline>
</glyph>
<glyph name="hookabovecomb.case" format="2">
  <advance width="896"/>
  <outline>
    <contour>
      <point x="357.6" y="1568.0" type="line"/>
      <point x="357.6" y="1705.2" type="line"/>
      <point x="368.36" y="1705.2" type="line"/>
      <point x="385.96" y="1693.44"/>
      <point x="451.98" y="1674.84"/>
      <point x="501.86" y="1674.84" type="qcurve" smooth="yes"/>
      <point x="573.24" y="1674.84"/>
      <point x="653.46" y="1744.4"/>
      <point x="653.46" y="1801.74" type="qcurve" smooth="yes"/>
      <point x="653.46" y="1846.32"/>
      <point x="575.7" y="1908.88"/>
      <point x="502.86" y="1908.88" type="qcurve" smooth="yes"/>
      <point x="436.84" y="1908.88"/>
      <point x="310.42" y="1846.08"/>
      <point x="283.52" y="1816.64" type="qcurve"/>
      <point x="271.52" y="1832.1" type="line"/>
      <point x="306.72" y="1865.92"/>
      <point x="446.14" y="1927.64"/>
      <point x="523.38" y="1927.64" type="qcurve" smooth="yes"/>
      <point x="608.02" y="1927.64"/>
      <point x="722.46" y="1860.54"/>
      <point x="722.46" y="1794.36" type="qcurve" smooth="yes"/>
      <point x="722.46" y="1723.8"/>
      <point x="602.64" y="1651.78"/>
      <point x="512.62" y="1651.78" type="qcurve" smooth="yes"/>
      <point x="466.66" y="1651.78"/>
      <point x="402.74" y="1668.98"/>
      <point x="377.6" y="1682.2" type="qcurve"/>
      <point x="377.6" y="1568.0" type="line"/>
    </contour>
  </outline>
</glyph>
<glyph name="horizontalbarH" format="2">
  <advance width="1691"/>
  <outline>
    <contour>
      <point x="1546.0" y="1130.86" type="line"/>
      <point x="1325.6" y="1134.4" type="line"/>
      <point x="1325.6" y="1166.0" type="line"/>
      <point x="1556.0" y="1162.46" type="line"/>
    </contour>
    <contour>
      <point x="142.60000000000002" y="1134.4" type="line"/>
      <point x="133.60000000000002" y="1166.0" type="line"/>
      <point x="361.8" y="1166.0" type="line"/>
      <point x="361.8" y="1134.4" type="line"/>
    </contour>
    <contour>
      <point x="361.8" y="1134.4" type="line"/>
      <point x="361.8" y="1166.0" type="line"/>
      <point x="1325.6" y="1166.0" type="line"/>
      <point x="1325.6" y="1134.4" type="line"/>
    </contour>
  </outline>
</glyph>
<glyph name="horizontalbarlc" format="2">
  <advance width="737"/>
  <outline>
    <contour>
      <point x="352.44" y="781.32" type="line"/>
      <point x="101.82" y="781.32" type="line"/>
      <point x="106.28" y="808.08" type="line"/>
      <point x="369.2" y="808.08" type="line"/>
      <point x="647.26" y="808.08" type="line"/>
      <point x="645.58" y="781.32" type="line"/>
    </contour>
  </outline>
</glyph>
<glyph name="macroncomb.case" format="2">
  <advance width="896"/>
  <outline>
    <contour>
      <point x="174.0" y="1628.0" type="line"/>
      <point x="174.0" y="1667.6" type="line"/>
      <point x="722.0" y="1667.6" type="line"/>
      <point x="722.0" y="1628.0" type="line"/>
    </contour>
  </outline>
</glyph>
<glyph name="nine.tab" format="2">
  <advance width="890"/>
  <outline>
    <contour>
      <point x="830.76" y="881.34" type="qcurve" smooth="yes"/>
      <point x="830.76" y="524.34"/>
      <point x="478.9" y="30.86"/>
      <point x="255.18" y="-27.14" type="qcurve"/>
      <point x="252.02" y="-16.46" type="line"/>
      <point x="464.62" y="39.94"/>
      <point x="775.4200000000001" y="538.32"/>
      <point x="775.4200000000001" y="893.12" type="qcurve" smooth="yes"/>
      <point x="775.4200000000001" y="1228.44"/>
      <point x="578.04" y="1505.62"/>
      <point x="419.68" y="1505.62" type="qcurve" smooth="yes"/>
      <point x="265.08" y="1505.62"/>
      <point x="94.46000000000001" y="1270.78"/>
      <point x="94.46000000000001" y="1039.72" type="qcurve" smooth="yes"/>
      <point x="94.46000000000001" y="806.52"/>
      <point x="230.42000000000002" y="598.82"/>
      <point x="348.78" y="598.82" type="qcurve"/>
      <point x="427.38" y="598.82"/>
      <point x="564.04" y="657.76"/>
      <point x="589.94" y="690.46" type="qcurve"/>
      <point x="599.48" y="678.92" type="line"/>
      <point x="570.82" y="645.92"/>
      <point x="432.86" y="584.58"/>
      <point x="346.86" y="584.58" type="qcurve"/>
      <point x="214.66" y="584.58"/>
      <point x="34.96" y="791.66"/>
      <point x="34.96" y="1032.22" type="qcurve" smooth="yes"/>
      <point x="34.96" y="1268.3"/>
      <point x="253.92000000000002" y="1519.62"/>
      <point x="419.84000000000003" y="1519.62" type="qcurve" smooth="yes"/>
      <point x="590.04" y="1519.62"/>
      <point x="830.76" y="1245.32"/>
    </contour>
  </outline>
</glyph>
<glyph name="one.lc" format="2">
  <advance width="785"/>
  <outline>
    <contour>
      <point x="84.0" y="0.0" type="line"/>
      <point x="84.0" y="89.0" type="line"/>
      <point x="342.0" y="124.0" type="line"/>
      <point x="342.0" y="544.0" type="line"/>
      <point x="340.0" y="937.0" type="line"/>
      <point x="82.0" y="971.0" type="line"/>
      <point x="82.0" y="1070.0" type="line"/>
      <point x="487.0" y="1093.0" type="line"/>
      <point x="519.0" y="1058.0" type="line"/>
      <point x="513.0" y="544.0" type="line"/>
      <point x="513.0" y="124.0" type="line"/>
      <point x="771.0" y="89.0" type="line"/>
      <point x="771.0" y="0.0" type="line"/>
    </contour>
  </outline>
</glyph>
<glyph name="two.lc" format="2">
  <advance width="966"/>
  <outline>
    <contour>
      <point x="52.0" y="0.0" type="line"/>
      <point x="52.0" y="90.0" type="line"/>
      <point x="76.0" y="172.0"/>
      <point x="235.0" y="362.0"/>
      <point x="388.0" y="467.0" type="qcurve" smooth="yes"/>
      <point x="545.0" y="576.0"/>
      <point x="672.0" y="726.0"/>
      <point x="672.0" y="818.0" type="qcurve" smooth="yes"/>
      <point x="672.0" y="904.0"/>
      <point x="561.0" y="989.0"/>
      <point x="465.0" y="989.0" type="qcurve" smooth="yes"/>
      <point x="357.0" y="989.0"/>
      <point x="193.0" y="914.0"/>
      <point x="121.0" y="844.0" type="qcurve"/>
      <point x="53.0" y="939.0" type="line"/>
      <point x="118.0" y="1009.0"/>
      <point x="337.0" y="1115.0"/>
      <point x="502.0" y="1115.0" type="qcurve" smooth="yes"/>
      <point x="661.0" y="1115.0"/>
      <point x="875.0" y="971.0"/>
      <point x="875.0" y="833.0" type="qcurve" smooth="yes"/>
      <point x="875.0" y="687.0"/>
      <point x="667.0" y="487.0"/>
      <point x="512.0" y="403.0" type="qcurve" smooth="yes"/>
      <point x="391.0" y="337.0"/>
      <point x="246.0" y="215.0"/>
      <point x="221.0" y="160.0" type="qcurve"/>
      <point x="230.0" y="152.0" type="line"/>
      <point x="894.0" y="152.0" type="line"/>
      <point x="894.0" y="0.0" type="line"/>
    </contour>
  </outline>
</glyph>
